<svg xmlns="http://www.w3.org/2000/svg" viewBox="0 0 232.91 484.2"><defs><style>.cls-1{fill:#fff;}</style></defs><g id="Layer_3" data-name="Layer 3"><path class="cls-1" d="M352.64,249.53V93.77h-6V245.4c-22.09-14.24-50.68-22.55-84.7-22.55H166.45v6H201.5V451.16L167.38,440l-1.86,5.7,36,11.79,0-.14c8.14,2.55,21.54,5.24,37.14,6.74V578h6V464.6c5.86.43,12,.67,18.15.67,84.63,0,135.53-53.13,135.53-123.12C398.43,304.29,382.14,271.2,352.64,249.53ZM207.86,452.23V228.89h53.77c34.87,0,63.53,9,85,24.09V379.65l-101.83-96-.06.06h-6V457.87A184.92,184.92,0,0,1,207.86,452.23Zm55.68,7c-6.35,0-12.69-.3-18.79-.8V291.79L346.64,387.9v.19h.2l.1.09.09-.09h5.61V257.52c25.62,20.73,39.43,50.93,39.43,84.63C392.07,406.73,345.3,459.23,263.54,459.23Z" transform="translate(-165.52 -93.77)"/></g></svg>