<svg xmlns="http://www.w3.org/2000/svg" viewBox="0 0 232.91 484.2"><defs><style>.cls-1{fill:#354e41;}</style></defs><g id="Layer_3" data-name="Layer 3"><path class="cls-1" d="M324.64,243.53V87.77h-6V239.4c-22.09-14.24-50.68-22.55-84.7-22.55H138.45v6H173.5V445.16L139.38,434l-1.86,5.7,36,11.79,0-.14c8.14,2.55,21.54,5.24,37.14,6.74V572h6V458.6c5.86.43,12,.67,18.15.67,84.63,0,135.53-53.13,135.53-123.12C370.43,298.29,354.14,265.2,324.64,243.53ZM179.86,446.23V222.89h53.77c34.87,0,63.53,9,85,24.09V373.65l-101.83-96-.06.06h-6V451.87A184.92,184.92,0,0,1,179.86,446.23Zm55.68,7c-6.35,0-12.69-.3-18.79-.8V285.79L318.64,381.9v.19h.2l.1.09.09-.09h5.61V251.52c25.62,20.73,39.43,50.93,39.43,84.63C364.07,400.73,317.3,453.23,235.54,453.23Z" transform="translate(-137.52 -87.77)"/></g></svg>