<?xml version="1.0" encoding="utf-8"?>
<!-- Generator: Adobe Illustrator 26.4.1, SVG Export Plug-In . SVG Version: 6.00 Build 0)  -->
<svg version="1.1" id="Layer_1" xmlns="http://www.w3.org/2000/svg" xmlns:xlink="http://www.w3.org/1999/xlink" x="0px" y="0px"
	 viewBox="0 0 595.28 841.89" style="enable-background:new 0 0 595.28 841.89;" xml:space="preserve">
<style type="text/css">
	.st0{fill:#FFFFFF;stroke:#FFFFFF;stroke-miterlimit:10;}
	.st1{font-family:'Papyrus-Regular';}
	.st2{font-size:29.528px;}
	.st3{fill:#FFFFFF;}
</style>
<g>
	<text transform="matrix(1 0 0 1 279.2629 185.3207)"><tspan x="0" y="0" class="st0 st1 st2">The</tspan><tspan x="0" y="35.43" class="st0 st1 st2">Galloping Goose</tspan></text>
	<g>
		<g>
			<path class="st3" d="M201.99,166.79c-5.73-4.67-14.23-4.2-21.07-1.38c-6.84,2.82-12.66,7.59-19.11,11.21
				c-1.99,1.11-4.06,2.13-5.76,3.65c-1.66,1.48-2.9,3.37-4.09,5.25c-7.1,11.23-13.2,23.09-18.2,35.4c2.97-2.7,5.94-5.4,8.91-8.1
				c2.49-2.26,5.23-4.64,8.57-4.93c3.35-0.29,7.09,2.75,6.12,5.96c-0.85,2.81-4.29,3.67-6.95,4.91s-4.99,4.99-2.7,6.83
				c0.76-4.1,5.49-6.31,9.66-6.23c4.17,0.08,8.15,1.73,12.28,2.3c5.41,0.73,11.07-0.48,15.7-3.37c2.83-1.77,5.27-4.13,8.16-5.8
				c4.13-2.4,9.12-3.28,13.82-2.45c1.26,0.22,2.7,0.52,3.71-0.27c0.91-0.72,1.05-2.03,1.1-3.19c0.21-5.36,0.03-10.73-0.53-16.07
				c3.42,0.18,7.24,0.23,9.75-2.09c1.49-1.37,2.24-3.36,2.78-5.31c1.11-4.02,1.52-8.23,1.2-12.39c-0.17-2.17-0.52-4.4,0.16-6.46
				s2.86-3.84,4.94-3.19c1.69,0.53,2.55,2.33,3.51,3.81c2.43,3.76,6.6,6.34,11.05,6.83c-4.21-0.05-7.38-3.61-10.68-6.23
				c-3.3-2.62-8.66-4.23-11.32-0.96c-1.81,2.23-2.51,6.54-5.33,5.99c1.46-1.63,1.57-4.3,0.26-6.05c-1.23,3.34-3.87,6.28-7.28,7.3
				c-3.41,1.02-7.53-0.21-9.38-3.25c-0.84-1.38-1.19-3.02-2.08-4.36c-1.99-3-6.26-3.76-9.71-2.71s-6.27,3.48-8.98,5.86"/>
			<g>
				<path class="st3" d="M203.76,165.02c-4.97-3.95-11.13-4.82-17.28-3.81c-6.39,1.06-12.07,4.46-17.43,7.93
					c-2.8,1.81-5.58,3.68-8.49,5.31c-2.92,1.64-5.81,3.21-7.97,5.85c-2.18,2.67-3.92,5.72-5.68,8.68c-1.82,3.05-3.57,6.14-5.25,9.27
					c-3.82,7.14-7.23,14.48-10.29,21.98c-0.41,1.01,0.28,2.31,1.15,2.82c0.99,0.58,2.2,0.36,3.03-0.39c2.97-2.7,5.93-5.4,8.91-8.1
					c1.97-1.78,4.86-4.69,7.82-4.19c0.93,0.16,1.91,0.75,2.45,1.54c0.51,0.75,0.36,1.43-0.35,2.08c-1.99,1.83-5.1,2.13-7.21,3.96
					c-2.63,2.29-4.19,6.7-1.2,9.37c1.32,1.17,3.76,0.84,4.18-1.1c1.03-4.81,7.37-4.69,11.16-3.88c3.21,0.69,6.34,1.65,9.62,1.92
					c3,0.24,6.09-0.09,8.98-0.9c2.93-0.82,5.7-2.16,8.17-3.92c2.47-1.76,4.74-3.82,7.45-5.24c2.47-1.29,5.26-1.97,8.05-2
					c2.85-0.04,6.16,1.4,8.74-0.3c3-1.98,2.42-6.64,2.42-9.74c0-3.9-0.22-7.8-0.62-11.68c-0.83,0.83-1.67,1.67-2.5,2.5
					c3.99,0.21,8.21,0.06,11.38-2.7c3.31-2.88,4.14-8.08,4.66-12.19c0.29-2.3,0.37-4.62,0.23-6.94c-0.12-1.97-0.72-4.36,0.04-6.26
					c0.35-0.87,1.31-1.92,2.19-1.21c0.52,0.42,0.86,1.12,1.21,1.68c0.58,0.93,1.19,1.81,1.89,2.66c2.96,3.57,7.26,5.61,11.8,6.17
					c0-1.67,0-3.33,0-5c-2.9-0.11-5.23-2.4-7.32-4.17c-2.43-2.07-5.05-4-8.27-4.6c-3.07-0.57-6.31-0.02-8.35,2.54
					c-0.9,1.13-1.48,2.41-2.15,3.67c-0.14,0.26-0.28,0.52-0.43,0.77c0.01-0.01-0.44,0.64-0.23,0.38c-0.11,0.13-0.22,0.25-0.35,0.36
					c0.04-0.03,0.09-0.07,0.13-0.1c-0.26,0.14-0.27,0.15-0.03,0.02c0.12-0.04,0.23-0.04,0.34,0.02c0.37,1.39,0.74,2.79,1.1,4.18
					c2.12-2.57,2.61-6.24,0.65-9.08c-1.28-1.85-3.78-1.45-4.57,0.6c-1.21,3.13-4.08,5.92-7.6,5.81c-1.49-0.05-3.06-0.64-4.06-1.78
					c-1.3-1.48-1.56-3.62-2.71-5.22c-2.5-3.49-6.93-4.6-11.01-3.89c-4.47,0.77-8.1,3.91-11.41,6.81c-1.02,0.89-0.91,2.63,0,3.54
					c1.01,1.01,2.52,0.89,3.54,0c2.47-2.16,5.1-4.54,8.36-5.35c2.22-0.55,5.15-0.19,6.5,1.87c0.91,1.39,1.23,3.09,2.16,4.48
					c0.92,1.38,2.22,2.56,3.71,3.3c3.04,1.51,6.53,1.64,9.65,0.31c3.72-1.58,6.27-4.84,7.69-8.54c-1.52,0.2-3.05,0.4-4.57,0.6
					c0.6,0.87,0.88,2.11,0.13,3.02c-1.04,1.26-0.95,3.89,1.1,4.18c3.45,0.49,5.22-1.76,6.64-4.57c0.53-1.05,0.99-2.17,1.79-2.72
					c0.81-0.56,1.91-0.55,2.97-0.31c2.99,0.67,5.05,2.72,7.34,4.61c2.72,2.25,5.61,4.14,9.25,4.28c1.35,0.05,2.5-1.18,2.5-2.5
					c0-1.49-1.15-2.33-2.5-2.5c-3.34-0.41-6.61-2.39-8.57-5.12c-1.17-1.63-2-3.43-3.68-4.63c-1.77-1.26-4.04-1.3-5.95-0.35
					c-4.48,2.24-4.29,7.35-3.97,11.59c0.33,4.39-0.08,8.92-1.53,13.09c-0.62,1.78-1.66,3.22-3.5,3.81c-1.99,0.64-4.15,0.49-6.2,0.39
					c-1.25-0.06-2.64,1.2-2.5,2.5c0.35,3.4,0.57,6.8,0.61,10.22c0.02,1.62,0.01,3.25-0.04,4.87c-0.02,0.56,0,1.17-0.09,1.73
					c-0.09,0.52,0.02,0.36-0.3,0.45c-0.49,0.13-1.23-0.15-1.7-0.23c-0.77-0.12-1.56-0.22-2.34-0.28c-1.52-0.11-3.03-0.02-4.53,0.18
					c-2.97,0.4-5.85,1.36-8.46,2.86c-2.65,1.53-4.9,3.63-7.43,5.33c-2.41,1.62-5.05,2.73-7.89,3.31c-2.61,0.54-5.36,0.55-7.98,0.06
					c-3.26-0.61-6.42-1.65-9.73-2.03c-5.59-0.64-12.6,1.79-13.92,7.93c1.39-0.37,2.79-0.74,4.18-1.1c-0.29-0.26-0.27-0.11-0.18-0.4
					c0.08-0.28,0.43-0.91,0.78-1.32c0.92-1.04,2.22-1.46,3.47-1.99c3.12-1.32,6.44-3.4,6.47-7.22c0.03-3.62-3.17-6.68-6.59-7.33
					c-4.06-0.77-7.67,1.37-10.68,3.87c-3.71,3.08-7.18,6.47-10.75,9.71c1.39,0.81,2.79,1.62,4.18,2.43
					c4.98-12.22,11.07-24.03,18.17-35.15c1.56-2.45,3.22-4.46,5.74-5.97c2.73-1.63,5.51-3.12,8.19-4.85
					c4.96-3.2,9.93-6.82,15.62-8.62c5.23-1.66,11.77-2.03,16.32,1.58c1.06,0.84,2.5,1.03,3.54,0
					C204.63,167.69,204.82,165.87,203.76,165.02L203.76,165.02z"/>
			</g>
		</g>
		<g>
			<path class="st3" d="M145.53,223.6c-1.11,0.14-2-0.87-2.67-1.77c-0.08-0.11-0.17-0.24-0.14-0.38c0.02-0.11,0.12-0.19,0.21-0.26
				c2.47-1.92,5.08-3.66,7.81-5.19c1.09-0.61,2.23-1.22,2.96-2.22c0.74-1,0.91-2.54,0.04-3.43"/>
			<g>
				<path class="st3" d="M145.53,222.35c-0.35,0.03-0.56-0.08-0.84-0.31c-0.23-0.2-0.72-0.61-0.76-0.92
					c-0.04,0.32-0.08,0.64-0.13,0.96c0.12-0.22,0.64-0.48,0.84-0.63c0.33-0.25,0.66-0.49,1-0.73c0.7-0.5,1.42-0.99,2.14-1.46
					c1.41-0.92,2.86-1.74,4.32-2.58c1.27-0.73,2.51-1.65,3.1-3.03c0.61-1.42,0.47-3-0.57-4.17c-1.07-1.2-2.84,0.57-1.77,1.77
					c0.34,0.39,0.24,1.02,0.04,1.46c-0.32,0.69-0.99,1.17-1.62,1.55c-1.72,1.06-3.5,2-5.18,3.12c-0.86,0.57-1.7,1.16-2.53,1.77
					c-0.75,0.55-2.11,1.23-2.11,2.31c0,0.93,0.86,1.84,1.52,2.42c0.71,0.62,1.57,1.05,2.53,0.98c0.67-0.05,1.25-0.54,1.25-1.25
					C146.78,222.97,146.2,222.3,145.53,222.35L145.53,222.35z"/>
			</g>
		</g>
		<g>
			<path class="st3" d="M144.5,196.57c-0.84,1.32-2.15,2.33-3.64,2.81c-0.29,0.09-0.6,0.18-0.78,0.41
				c-0.25,0.31-0.18,0.75-0.11,1.14c0.15,0.8,0.3,1.59,0.45,2.39"/>
			<g>
				<path class="st3" d="M143.42,195.93c-0.06,0.09-0.11,0.17-0.17,0.26c-0.02,0.03-0.19,0.25-0.09,0.12
					c0.1-0.13-0.08,0.09-0.1,0.12c-0.07,0.08-0.14,0.16-0.21,0.23c-0.13,0.14-0.27,0.27-0.41,0.4c-0.06,0.06-0.13,0.11-0.2,0.17
					c-0.26,0.22,0.2-0.14-0.08,0.06c-0.3,0.21-0.6,0.41-0.93,0.58c-0.08,0.04-0.15,0.08-0.23,0.12c-0.04,0.02-0.35,0.13-0.08,0.04
					c-0.18,0.06-0.36,0.13-0.54,0.19c-0.56,0.19-1.04,0.45-1.39,0.94c-0.29,0.42-0.38,0.97-0.33,1.47c0.11,1.01,0.36,2.02,0.55,3.02
					c0.12,0.64,0.93,1.07,1.54,0.87c0.69-0.22,1-0.85,0.87-1.54c-0.16-0.86-0.36-1.72-0.49-2.59c0.05,0.36-0.01-0.07,0.01-0.07
					c0.03,0-0.1,0.24,0,0.05c-0.07,0.15-0.1,0.19-0.22,0.3c0.09-0.08,0.09-0.04-0.03,0c0.41-0.14,0.82-0.29,1.22-0.46
					c1.42-0.63,2.61-1.72,3.46-3.02c0.36-0.55,0.13-1.41-0.45-1.71C144.51,195.16,143.8,195.35,143.42,195.93L143.42,195.93z"/>
			</g>
		</g>
		<g>
			<path class="st3" d="M134.31,217.23c-2.17,2.45-4.18,5.03-6.02,7.74c0.45,0.17,0.94-0.16,1.22-0.55
				c0.28-0.39,0.46-0.86,0.82-1.18c0.37-0.33,0.87-0.45,1.35-0.6c2.24-0.68,4.23-2.15,5.54-4.1"/>
			<g>
				<path class="st3" d="M133.43,216.35c-2.24,2.53-4.31,5.2-6.21,7.99c-0.46,0.68,0.02,1.63,0.75,1.84
					c0.75,0.21,1.47-0.01,2.06-0.49c0.46-0.38,0.7-0.89,1.03-1.38c0.11-0.16,0.09-0.15,0.24-0.22c0.12-0.06,0.28-0.11,0.53-0.18
					c0.55-0.17,1.08-0.37,1.61-0.6c1.98-0.87,3.65-2.35,4.87-4.13c0.38-0.56,0.1-1.39-0.45-1.71c-0.62-0.36-1.33-0.11-1.71,0.45
					c-0.93,1.36-2.26,2.45-3.85,3.17c-0.65,0.3-1.73,0.47-2.44,0.95c-0.49,0.33-0.82,0.76-1.12,1.26c-0.12,0.2-0.19,0.35-0.28,0.44
					c-0.18,0.19,0-0.03,0.16,0.02c0.25,0.61,0.5,1.22,0.75,1.84c1.78-2.62,3.73-5.11,5.82-7.48c0.45-0.51,0.5-1.27,0-1.77
					C134.74,215.89,133.88,215.84,133.43,216.35L133.43,216.35z"/>
			</g>
		</g>
		<g>
			<path class="st3" d="M135.38,221.96c-1.77,1.07-3.54,2.15-5.3,3.22"/>
			<g>
				<path class="st3" d="M134.75,220.88c-1.77,1.07-3.54,2.15-5.3,3.22c-0.56,0.34-0.82,1.14-0.45,1.71
					c0.36,0.56,1.11,0.81,1.71,0.45c1.77-1.07,3.54-2.15,5.3-3.22c0.56-0.34,0.82-1.14,0.45-1.71
					C136.1,220.77,135.35,220.52,134.75,220.88L134.75,220.88z"/>
			</g>
		</g>
		<g>
			<path class="st3" d="M155.18,179.71c3.16-1.09,4.34-5.76,7.67-6.13c0.32-0.04,0.67-0.03,0.94-0.2c0.93-0.59,0.18-2.49,1.19-2.9
				c0.41-0.17,0.88,0.05,1.32-0.01c1.06-0.14,1.42-1.71,2.46-1.92c0.54-0.11,1.15,0.17,1.62-0.11c0.33-0.19,0.48-0.6,0.77-0.84
				c0.87-0.7,2.45,0.29,3.18-0.55c0.2-0.23,0.27-0.54,0.47-0.77c0.27-0.32,0.71-0.41,1.13-0.46c0.78-0.1,1.59-0.11,2.29-0.45
				c0.71-0.34,1.28-1.12,1.07-1.88"/>
			<g>
				<path class="st3" d="M155.51,180.91c2.79-1.07,3.79-3.74,6.02-5.46c1.13-0.87,2.85-0.42,3.64-1.77c0.33-0.56,0.35-1.2,0.43-1.82
					c0.06-0.49,0.13-0.22,0.03-0.19c0.38-0.11,0.84,0.06,1.26-0.07c0.65-0.21,1.11-0.69,1.54-1.19c0.19-0.22,0.38-0.57,0.67-0.65
					c0.26-0.07,0.71,0.06,0.99,0.03c0.45-0.05,0.83-0.19,1.18-0.47c0.21-0.17,0.42-0.59,0.65-0.7c0.54-0.25,1.45,0.11,2.07-0.02
					c0.77-0.17,1.11-0.6,1.6-1.17c0.52-0.6,1.46-0.42,2.24-0.61c1.79-0.43,2.94-1.8,2.68-3.66c-0.22-1.59-2.63-0.91-2.41,0.66
					c0.1,0.69-2.08,0.72-2.49,0.79c-0.69,0.12-1.31,0.35-1.78,0.91c-0.14,0.17-0.29,0.57-0.44,0.64c-0.21,0.09-0.67-0.05-0.88-0.06
					c-0.69-0.04-1.38,0.02-1.97,0.42c-0.26,0.18-0.41,0.48-0.65,0.65c-0.5,0.37,0.34,0.03-0.45,0.11c-0.82,0.09-1.34,0.04-2.02,0.58
					c-0.42,0.33-0.68,0.92-1.11,1.2c-0.51,0.34-1.32,0.02-1.95,0.33c-1.2,0.6-1.04,1.79-1.3,2.89c-0.07,0.19-0.04,0.19,0.11,0.01
					c-0.11,0.01-0.21,0.03-0.32,0.04c-0.35-0.02-0.79,0.11-1.12,0.22c-0.52,0.17-1.01,0.43-1.45,0.75c-2,1.42-3.08,4.31-5.43,5.21
					C153.36,179.07,154.01,181.49,155.51,180.91L155.51,180.91z"/>
			</g>
		</g>
		<g>
			<path class="st3" d="M198.09,160.93c0.85-0.05,1.18,1.05,1.71,1.72c0.8,1.01,2.57,0.98,3.33-0.06c0.55,0.18,0.54,0.94,0.46,1.51
				s0.08,1.36,0.66,1.37c0.2,0,0.38-0.1,0.55-0.21c0.81-0.49,1.63-0.98,2.44-1.46c-0.93,1.97-1.86,3.94-2.79,5.91
				c0.27,0.11,0.56-0.04,0.81-0.19c0.93-0.57,1.87-1.14,2.8-1.72c-0.04,0.74,0.02,1.48,0.19,2.19c0.48-0.62,0.97-1.23,1.45-1.85
				c0.2-0.26,0.44-0.54,0.77-0.57c0.33-0.03,0.66,0.37,0.44,0.62"/>
			<g>
				<path class="st3" d="M198.09,162.18c-0.02,0-0.13-0.07-0.15-0.06c0.03-0.01,0.17,0.22,0.17,0.22c0.15,0.22,0.27,0.46,0.42,0.68
					c0.43,0.65,0.97,1.13,1.71,1.4c1.28,0.46,2.89,0.13,3.76-0.95c-0.5,0.07-1.01,0.13-1.51,0.2c-0.02-0.01-0.1-0.23-0.12-0.23
					c0.01,0,0,0.31,0,0.34c-0.01,0.29-0.05,0.56-0.03,0.86c0.06,0.73,0.36,1.47,1.02,1.86c0.77,0.45,1.57,0.15,2.27-0.26
					c0.75-0.44,1.49-0.89,2.24-1.34c-0.57-0.57-1.14-1.14-1.71-1.71c-0.93,1.97-1.86,3.94-2.79,5.91c-0.32,0.67-0.11,1.67,0.75,1.84
					c0.96,0.19,1.63-0.23,2.42-0.72c0.72-0.44,1.44-0.88,2.15-1.32c-0.63-0.36-1.25-0.72-1.88-1.08c-0.04,0.85,0.05,1.69,0.24,2.53
					c0.19,0.85,1.51,1.29,2.09,0.55c0.34-0.43,0.68-0.86,1.02-1.3c0.15-0.18,0.29-0.37,0.44-0.56c0.38-0.47,0.16-0.04-0.18-0.18
					c-0.18-0.11-0.37-0.21-0.55-0.32c-0.04-0.15-0.09-0.3-0.13-0.44c0.06-0.21,0.11-0.42,0.17-0.63c-0.02,0.04-0.04,0.08-0.06,0.11
					c-0.76,1.42,1.39,2.68,2.16,1.26c0.72-1.33-0.57-2.85-2.01-2.42c-0.56,0.17-0.96,0.59-1.31,1.04c-0.44,0.55-0.87,1.11-1.31,1.67
					c0.7,0.18,1.39,0.37,2.09,0.55c-0.14-0.62-0.17-1.23-0.15-1.86c0.04-0.94-1.09-1.56-1.88-1.08c-0.54,0.33-1.08,0.66-1.62,0.99
					c-0.45,0.28-0.97,0.74-1.49,0.83c0.22,0,0.44,0,0.66,0c-0.07-0.01-0.14-0.03-0.2-0.04c0.25,0.61,0.5,1.22,0.75,1.84
					c0.93-1.97,1.86-3.94,2.79-5.91c0.5-1.07-0.56-2.4-1.71-1.71c-0.58,0.35-1.15,0.69-1.73,1.04c-0.15,0.09-0.68,0.3-0.74,0.45
					c0,0.01,0.63,0.33,0.69,0.3c0.06-0.04-0.15,0.5,0-0.11c0.25-1.02-0.05-2.42-1.07-2.89c-0.46-0.22-1.15-0.26-1.51,0.2
					c-0.42,0.52-1.13,0.6-1.5,0.13c-0.78-0.99-1.18-2.13-2.65-2.15C196.48,159.66,196.48,162.16,198.09,162.18L198.09,162.18z"/>
			</g>
		</g>
		<g>
			<path class="st3" d="M216.6,166.15c0.84-1.2,1.69-2.4,2.53-3.6c0.32-0.45,0.66-0.93,1.17-1.14s1.23-0.02,1.37,0.52
				c0.34-0.44,0.14-1.06,0.09-1.61c-0.06-0.55,0.31-1.29,0.84-1.13c0.23,0.07,0.37,0.28,0.5,0.49c0.46,0.73,0.92,1.45,1.38,2.18
				c0.77-0.15,0.84-1.2,0.86-1.98s0.65-1.81,1.33-1.42c0.16,0.09,0.27,0.25,0.4,0.39c0.68,0.74,1.79,0.86,2.75,1.15
				c0.96,0.29,2,1.05,1.87,2.05c-0.16-0.64,0.72-1.1,1.34-0.9c0.62,0.2,1.05,0.76,1.58,1.15c1.31,1,3.43,1.23,3.91,2.81
				c0.18,0.6,0.12,1.38,0.66,1.7c0.3,0.18,0.67,0.14,1.02,0.16c1.15,0.08,2.15,1.11,2.21,2.25c0.55-0.82,1.19-1.57,1.9-2.26
				c0.42,0.74,0.83,1.48,1.25,2.21c2.03-3.55,7.14-3.87,11.01-2.56c1.73,0.59,3.38,1.41,4.84,2.49c4.48,3.32,7.58,9.26,13.13,9.9
				c-2.29,0.71-4.72-0.22-7.06-0.76s-5.24-0.44-6.57,1.55c-0.42-2.88-1.1-6.16-3.65-7.57c-0.9-0.5-2.01-0.74-2.6-1.58
				c-0.35-0.5-0.44-1.13-0.67-1.7c-0.61-1.54-2.4-2.55-4.01-2.14s-2.7,2.3-2.13,3.85c0.22,0.59,0.62,1.08,0.96,1.61
				c1.38,2.13,1.66,4.93,0.73,7.3c-1.87-2.06-4.25-3.65-6.87-4.6c-2.49-0.9-5.22-1.25-7.43-2.7c-1.17-0.77-2.14-1.81-3.34-2.51
				c-1.21-0.7-2.82-0.99-3.95-0.18c-2.03,1.45-0.99,4.94-2.65,6.81"/>
			<g>
				<path class="st3" d="M217.68,166.78c0.56-0.8,1.12-1.6,1.69-2.4c0.19-0.27,1.34-1.57,1.22-1.82c0.4,0.83,1.75,0.8,2.16,0
					c0.22-0.43,0.68-1.76,0.26-2.25c-0.91-0.29-1.2-0.23-0.88,0.17c0.12,0.18,0.23,0.36,0.35,0.55c0.31,0.48,0.61,0.97,0.92,1.45
					c0.27,0.43,0.89,0.77,1.41,0.57c0.8-0.3,1.33-0.79,1.58-1.63c0.09-0.3,0.13-0.63,0.16-0.94c0.02-0.21,0.03-0.41,0.04-0.62
					c0.21-0.38,0.02-0.5-0.59-0.36c-0.17,0.38,1.74,1.18,2.01,1.27c0.62,0.21,2.44,0.34,2.43,1.25c0.83,0,1.67,0,2.5,0
					c-0.08,0.1-0.16,0.21-0.24,0.31c0.15,0.08,0.28,0.17,0.4,0.29c0.17,0.2,0.43,0.38,0.63,0.54c0.38,0.3,0.77,0.54,1.21,0.76
					c0.75,0.38,2,0.68,2.39,1.5c0.43,0.91,0.21,1.85,1.23,2.45c1.09,0.65,2.43-0.03,2.66,1.67c0.16,1.17,1.75,1.07,2.28,0.3
					c0.51-0.73,1.07-1.38,1.7-2c-0.65-0.08-1.31-0.17-1.96-0.25c0.42,0.74,0.83,1.48,1.25,2.21c0.47,0.83,1.68,0.79,2.16,0
					c1.4-2.29,4.19-2.82,6.7-2.61c2.95,0.25,5.89,1.64,8.14,3.54c3.99,3.39,7.12,8.71,12.74,9.47c0-0.8,0-1.61,0-2.41
					c-2.86,0.76-5.7-0.9-8.55-1.06c-2.29-0.13-4.44,0.54-5.83,2.43c0.76,0.1,1.52,0.2,2.28,0.3c-0.43-2.88-1.12-6.14-3.65-7.94
					c-0.57-0.41-1.21-0.65-1.84-0.96c-0.99-0.48-1.05-0.98-1.43-1.95c-0.5-1.29-1.51-2.31-2.8-2.82c-2.74-1.06-5.9,0.87-5.94,3.9
					c-0.03,1.73,1.27,2.82,1.88,4.32c0.69,1.69,0.62,3.51,0,5.21c0.7-0.18,1.39-0.37,2.09-0.55c-2.16-2.31-4.82-4.03-7.81-5.06
					c-1.46-0.5-2.97-0.82-4.42-1.33c-1.64-0.58-2.87-1.53-4.21-2.59c-2.06-1.63-5.21-2.89-7.35-0.63c-0.76,0.8-1.09,1.89-1.28,2.95
					c-0.2,1.11-0.2,2.55-0.94,3.47c-1,1.24,0.76,3.02,1.77,1.77c1.41-1.75,1.12-3.75,1.86-5.74c1.13-3.05,4.7,0.45,6.05,1.45
					c2.2,1.62,4.89,2.11,7.45,2.92c2.75,0.88,5.14,2.44,7.11,4.54c0.69,0.73,1.78,0.29,2.09-0.55c0.94-2.58,0.73-5.52-0.65-7.92
					c-0.59-1.03-1.63-1.96-0.83-3.18c0.71-1.09,2.12-0.99,3-0.17c0.87,0.81,0.83,2.15,1.61,3.05c0.83,0.94,2.04,1.16,3.04,1.83
					c2.07,1.38,2.44,4.39,2.78,6.64c0.18,1.19,1.73,1.05,2.28,0.3c1.17-1.6,3.7-1.31,5.38-0.92c2.51,0.58,4.93,1.38,7.5,0.7
					c1.11-0.29,1.27-2.24,0-2.41c-3.02-0.41-5.22-2.38-7.27-4.48c-2.23-2.28-4.34-4.71-7.14-6.32c-4.77-2.74-12.61-3.99-15.98,1.55
					c0.72,0,1.44,0,2.16,0c-0.42-0.74-0.83-1.48-1.25-2.21c-0.4-0.71-1.4-0.81-1.96-0.25c-0.78,0.77-1.47,1.61-2.09,2.51
					c0.76,0.1,1.52,0.2,2.28,0.3c-0.12-0.91-0.58-1.71-1.28-2.31c-0.7-0.6-1.33-0.58-2.14-0.86c-0.5-0.18-0.22,0.07-0.4-0.64
					c-0.1-0.4-0.23-0.79-0.45-1.14c-0.37-0.6-0.96-1.05-1.56-1.39c-0.65-0.37-1.38-0.61-2.02-0.99c-0.75-0.44-1.28-1.17-2.1-1.5
					c-1.45-0.59-3.28,0.27-3.22,1.98c0.05,1.6,2.48,1.62,2.5,0c0.01-1.28-0.75-2.27-1.85-2.87c-0.53-0.29-1.11-0.43-1.68-0.59
					c-0.75-0.2-1.16-0.46-1.75-0.93c-0.89-0.7-1.99-0.69-2.79,0.18c-0.35,0.38-0.59,0.9-0.7,1.4c-0.07,0.31-0.06,0.63-0.09,0.94
					c-0.04,0.29-0.27,0.6,0.07,0.47c0.47,0.19,0.94,0.38,1.41,0.57c-0.73-1.15-1.65-3.56-3.38-3.27c-0.66,0.11-1.15,0.57-1.43,1.16
					c-0.14,0.29-0.22,0.6-0.24,0.92c-0.02,0.34,0.23,0.97,0.08,1.27c0.72,0,1.44,0,2.16,0c-0.68-1.42-2.48-1.5-3.62-0.61
					c-0.69,0.53-1.15,1.33-1.64,2.03c-0.66,0.93-1.31,1.87-1.97,2.8C214.59,166.84,216.76,168.09,217.68,166.78L217.68,166.78z"/>
			</g>
		</g>
		<g>
			<path class="st3" d="M214.22,205.61c0.1,3,2.89,5.11,5.41,6.76c2.34,1.53,4.68,3.05,7.02,4.58c1.71,1.12,3.45,2.25,5.42,2.81
				c5.2,1.5,10.59-1.21,15.33-3.84c-4.1,1.01-4.84,7.34-8.87,8.58c-1.33,0.41-2.75,0.16-4.14,0.17c-1.39,0.01-2.94,0.41-3.62,1.63
				c-0.2,0.36-0.33,0.79-0.68,0.99c-0.51,0.3-1.17-0.09-1.54-0.55c-1.62-2.04-0.6-5.26-2.01-7.44c-1.24-1.91-3.79-2.29-5.91-3.13
				c-2.62-1.04-4.78-2.96-7.26-4.3c-2.48-1.34-5.65-2.05-8.04-0.56"/>
			<g>
				<path class="st3" d="M212.97,205.61c0.21,3.13,2.38,5.27,4.81,7.01c3.19,2.28,6.55,4.43,9.9,6.47c3.12,1.9,6.38,2.71,10.02,2.12
					c3.68-0.6,7.09-2.42,10.32-4.21c1.24-0.69,0.4-2.66-0.96-2.28c-3.08,0.86-4.46,3.8-6.16,6.22c-0.93,1.32-2.04,2.43-3.73,2.54
					c-2.04,0.14-4.07-0.36-5.95,0.71c-0.57,0.32-1.54,1.06-1.66,1.77c-0.17,0.91-0.07-0.15,0.19,0.2c-0.18-0.25-0.34-0.36-0.48-0.61
					c-0.25-0.46-0.35-1.03-0.43-1.54c-0.28-1.81-0.18-3.71-1.2-5.32c-0.98-1.55-2.68-2.32-4.35-2.91c-2.05-0.72-3.86-1.51-5.69-2.71
					c-3.77-2.47-8.38-5.39-12.88-2.82c-1.4,0.8-0.14,2.96,1.26,2.16c3.97-2.27,8.23,1.54,11.43,3.51c1.71,1.05,3.51,1.67,5.38,2.34
					c1.93,0.69,3.05,1.66,3.34,3.76c0.25,1.79,0.18,3.69,1.26,5.24c1.04,1.49,3.12,2.01,4.2,0.26c0.52-0.85,0.87-1.29,1.92-1.48
					c1.13-0.21,2.31,0.02,3.45-0.02c1.74-0.06,3.24-0.64,4.51-1.83c2.16-2.03,3.21-6.17,6.28-7.03c-0.32-0.76-0.64-1.52-0.96-2.28
					c-2.75,1.52-5.58,3.04-8.66,3.75c-3.33,0.76-6.27,0.09-9.15-1.66c-2.88-1.75-5.66-3.66-8.48-5.5c-2.06-1.35-4.81-3.09-5-5.81
					C215.36,204.01,212.86,204,212.97,205.61L212.97,205.61z"/>
			</g>
		</g>
		<g>
			<path class="st3" d="M201.55,210.81c-4.63,0.88-7.39,5.5-10.99,8.54c-6.78,5.75-16.55,5.82-25.44,5.6
				c-0.81,1.31,0.68,2.83,2.03,3.57c2.62,1.44,5.43,2.53,8.33,3.22c-2.42,1.66-5.36,2.54-8.29,2.48c-1.06-0.02-2.24-0.13-3.04,0.57
				c-0.27,0.23-0.49,0.55-0.83,0.64c-0.66,0.17-1.17-0.6-1.36-1.26c-0.46-1.59-0.5-3.29-0.12-4.9c0.29-1.22,0.82-2.42,0.67-3.67
				c-0.2-1.66-1.61-2.97-3.17-3.55s-3.28-0.57-4.95-0.55"/>
			<g>
				<path class="st3" d="M201.22,209.61c-3.14,0.66-5.54,2.81-7.7,5.05c-2.36,2.45-4.61,4.78-7.71,6.3
					c-6.33,3.1-13.82,2.91-20.68,2.75c-0.41-0.01-0.9,0.24-1.08,0.62c-1.16,2.43,0.84,4.4,2.87,5.49c2.6,1.39,5.38,2.43,8.24,3.14
					c-0.1-0.76-0.2-1.52-0.3-2.28c-2.6,1.73-5.3,2.29-8.38,2.29c-1.3,0-2.33,0.24-3.33,1.07c-0.21,0.16-0.16,0.18,0.14,0.08
					c-0.04-0.09-0.07-0.18-0.11-0.27c0.04-0.33-0.2-0.82-0.25-1.15c-0.12-0.87-0.12-1.77,0.04-2.64c0.24-1.35,0.85-2.63,0.84-4.03
					c-0.01-1.25-0.52-2.41-1.35-3.34c-2.03-2.29-5.2-2.45-8.05-2.43c-1.61,0.01-1.61,2.51,0,2.5c2.67-0.02,7.55,0.26,6.79,4.16
					c-0.54,2.74-1.67,5.95,0.01,8.58c0.6,0.94,1.67,1.49,2.75,1.01c0.61-0.27,0.95-0.87,1.62-1.01c0.66-0.13,1.37-0.02,2.04-0.03
					c3.03-0.03,5.99-0.98,8.51-2.65c0.86-0.57,0.8-2.01-0.3-2.28c-1.93-0.48-3.82-1.09-5.63-1.9c-0.7-0.31-4.57-1.83-3.99-3.06
					c-0.36,0.21-0.72,0.41-1.08,0.62c7,0.17,14.37,0.22,20.92-2.62c3.12-1.35,5.65-3.4,7.99-5.84c2.26-2.36,4.51-5.02,7.85-5.72
					C203.45,211.68,202.79,209.27,201.22,209.61L201.22,209.61z"/>
			</g>
		</g>
		<g>
			<path class="st3" d="M163.97,222.91"/>
			<g>
				<path class="st3" d="M163.97,224.78c2.41,0,2.42-3.75,0-3.75C161.56,221.03,161.55,224.78,163.97,224.78L163.97,224.78z"/>
			</g>
		</g>
		<g>
			<path class="st3" d="M163.74,231.43"/>
			<g>
				<path class="st3" d="M163.74,233.31c2.41,0,2.42-3.75,0-3.75C161.33,229.56,161.32,233.31,163.74,233.31L163.74,233.31z"/>
			</g>
		</g>
		<g>
			<path class="st3" d="M164.2,229.36"/>
			<g>
				<path class="st3" d="M164.2,231.23c2.41,0,2.42-3.75,0-3.75C161.79,227.48,161.78,231.23,164.2,231.23L164.2,231.23z"/>
			</g>
		</g>
		<g>
			<path class="st3" d="M167.89,231.43"/>
			<g>
				<path class="st3" d="M167.89,233.31c2.41,0,2.42-3.75,0-3.75C165.47,229.56,165.47,233.31,167.89,233.31L167.89,233.31z"/>
			</g>
		</g>
		<g>
			<path class="st3" d="M169.73,231.66"/>
			<g>
				<path class="st3" d="M169.73,233.54c2.41,0,2.42-3.75,0-3.75C167.32,229.79,167.31,233.54,169.73,233.54L169.73,233.54z"/>
			</g>
		</g>
		<g>
			<path class="st3" d="M215.13,210"/>
			<g>
				<path class="st3" d="M215.13,211.88c2.41,0,2.42-3.75,0-3.75C212.72,208.12,212.72,211.88,215.13,211.88L215.13,211.88z"/>
			</g>
		</g>
		<g>
			<path class="st3" d="M229.85,220.78c0.34,1.31,0.68,2.62,1.02,3.93c0.86-0.18,1.05-1.38,1.78-1.88c0.38-0.26,0.88-0.3,1.34-0.33
				c1.63-0.1,3.25-0.19,4.88-0.29"/>
			<g>
				<path class="st3" d="M228.05,221.28c0.34,1.31,0.68,2.62,1.02,3.93c0.26,0.99,1.33,1.56,2.31,1.31
					c0.95-0.24,1.58-0.93,2.09-1.72c0.08-0.12,0.15-0.25,0.24-0.37c0.02-0.03,0.04-0.06,0.06-0.09c0.12-0.16,0.08-0.12-0.1,0.12
					c0.05-0.05,0.1-0.11,0.15-0.15c-0.26,0.18-0.29,0.21-0.1,0.09c-0.65,0.27,0.56-0.15-0.15,0.03c0.4-0.1,0.88-0.06,1.29-0.08
					c0.41-0.02,0.81-0.05,1.22-0.07c0.93-0.05,1.86-0.11,2.79-0.16c0.98-0.06,1.92-0.82,1.88-1.88c-0.04-0.97-0.83-1.94-1.88-1.88
					c-1.81,0.11-3.65,0.12-5.44,0.34c-1.23,0.15-2.13,0.65-2.85,1.66c-0.17,0.24-0.33,0.49-0.48,0.74c-0.11,0.16-0.08,0.12,0.1-0.13
					c-0.04,0.05-0.09,0.1-0.14,0.15c0.26-0.18,0.3-0.22,0.14-0.12c0.3-0.11,0.36-0.14,0.16-0.08c0.77,0.44,1.54,0.87,2.31,1.31
					c-0.34-1.31-0.68-2.62-1.02-3.93c-0.25-0.95-1.35-1.62-2.31-1.31C228.38,219.29,227.78,220.26,228.05,221.28L228.05,221.28z"/>
			</g>
		</g>
		<g>
			<path class="st3" d="M247.63,174.51"/>
			<g>
				<path class="st3" d="M247.63,176.38c2.41,0,2.42-3.75,0-3.75C245.22,172.63,245.21,176.38,247.63,176.38L247.63,176.38z"/>
			</g>
		</g>
		<g>
			<path class="st3" d="M255.96,168.47c1.41,0.34,1.91,2.11,3.07,2.99c0.53,0.4,1.19,0.61,1.71,1.02c0.81,0.63,1.18,1.66,1.76,2.51
				c0.58,0.85,1.64,1.59,2.58,1.19"/>
			<g>
				<path class="st3" d="M255.46,170.27c0.41,0.11,0,0.06-0.03-0.04c0,0.01,0.25,0.17,0.28,0.17c-0.23-0.19-0.27-0.22-0.12-0.09
					c0.03,0.03,0.05,0.05,0.08,0.08c0.1,0.09,0.18,0.19,0.27,0.29c0.04,0.05,0.32,0.36,0.11,0.12c-0.21-0.24,0.06,0.09,0.1,0.14
					c0.14,0.19,0.28,0.38,0.42,0.57c0.46,0.6,0.9,1.11,1.51,1.56c0.25,0.18,0.52,0.33,0.79,0.47c0.23,0.12,0.62,0.25,0.8,0.46
					c-0.28-0.33-0.01,0.02,0.05,0.08c0.05,0.05,0.09,0.1,0.14,0.15c0.09,0.1,0.06,0.07-0.08-0.11c0.07-0.02,0.4,0.63,0.45,0.71
					c0.34,0.59,0.67,1.16,1.1,1.69c0.97,1.2,2.72,2.02,4.24,1.45c0.92-0.34,1.64-1.28,1.31-2.31c-0.29-0.9-1.32-1.68-2.31-1.31
					c-0.26,0.1-0.29,0.07,0,0.04c-0.38,0.03,0.36,0.12,0,0c-0.39-0.12,0.32,0.21-0.04-0.02c-0.06-0.03-0.12-0.07-0.17-0.11
					c-0.11-0.08-0.08-0.05,0.1,0.09c-0.11-0.04-0.22-0.22-0.3-0.29c-0.27-0.24,0.16,0.28-0.05-0.05c-0.14-0.22-0.28-0.44-0.41-0.66
					c-0.69-1.2-1.42-2.25-2.67-2.93c-0.27-0.14-0.54-0.3-0.81-0.44c-0.3-0.15,0.08,0.12-0.01,0.01c-0.07-0.09-0.17-0.16-0.25-0.24
					c-0.08-0.08-0.16-0.17-0.23-0.26c-0.25-0.28,0.05-0.02,0.04,0.06c0.02-0.08-0.37-0.5-0.42-0.58c-0.77-1.05-1.59-1.99-2.89-2.35
					c-0.94-0.26-2.08,0.32-2.31,1.31C253.93,168.96,254.45,170,255.46,170.27L255.46,170.27z"/>
			</g>
		</g>
		<g>
			<path class="st3" d="M231.96,166.44c-0.97,0.31-1.98,0.47-3,0.46"/>
			<g>
				<path class="st3" d="M231.46,164.63c-0.54,0.17-1.09,0.3-1.65,0.37c0.17-0.02,0.33-0.04,0.5-0.07c-0.45,0.06-0.9,0.09-1.35,0.09
					c-0.48,0-0.99,0.21-1.33,0.55c-0.33,0.33-0.57,0.86-0.55,1.33c0.02,0.48,0.18,0.99,0.55,1.33c0.37,0.34,0.82,0.55,1.33,0.55
					c1.17,0,2.38-0.17,3.49-0.53c0.46-0.15,0.87-0.44,1.12-0.86c0.24-0.4,0.33-0.99,0.19-1.44c-0.15-0.45-0.43-0.89-0.86-1.12
					C232.47,164.59,231.94,164.48,231.46,164.63L231.46,164.63z"/>
			</g>
		</g>
		<g>
			<path class="st3" d="M152.84,200.6c7.72-11.89,18.5-21.77,31.01-28.44c1.26-0.67,2.65-1.33,4.07-1.12
				c1.06,0.16,1.99,0.79,2.89,1.38c3.79,2.45,7.94,4.36,12.28,5.64c4.81,1.42,10.1,2.04,14.76,0.2
				c-6.75,0.82-12.57,6.59-13.47,13.33c-0.3,2.26-0.1,4.56-0.12,6.84c-0.01,0.8-0.08,1.68-0.63,2.26c-0.62,0.65-1.62,0.7-2.52,0.8
				c-7.65,0.81-13.19,7.75-20.45,10.31c-4.64,1.63-9.7,1.38-14.6,1.11c-1.84-4.29,0.76-9.14,3.64-12.82
				c4.67-5.97,10.34-11.15,16.7-15.27c0.66-0.43,1.54-0.84,2.17-0.36c0.43,0.33,0.51,0.94,0.52,1.48c0.05,4.81-3.47,9.44-8.13,10.67
				"/>
			<g>
				<path class="st3" d="M159.32,204.39c0.97-1.48,1.98-2.94,3.04-4.36c0.33-0.44,1.64-1.9,0.07-0.11c0.27-0.31,0.51-0.64,0.76-0.96
					c0.51-0.64,1.04-1.27,1.57-1.89c2.35-2.74,4.87-5.34,7.55-7.76c1.31-1.19,2.67-2.33,4.05-3.44c0.44-0.35,1.84-1.24-0.07,0.04
					c0.34-0.23,0.65-0.49,0.98-0.74c0.71-0.53,1.43-1.04,2.16-1.54c2.97-2.05,6.09-4.05,9.37-5.58c-0.6,0.25-1.19,0.5-1.79,0.76
					c0.54-0.22,1.06-0.4,1.63-0.52c-0.66,0.09-1.33,0.18-1.99,0.27c0.44-0.05,0.82-0.06,1.26-0.02c-0.66-0.09-1.33-0.18-1.99-0.27
					c0.41,0.08,0.76,0.19,1.14,0.35c-0.6-0.25-1.19-0.5-1.79-0.76c2.36,1.16,4.48,2.75,6.86,3.9c2.88,1.39,5.88,2.62,8.95,3.52
					c5.96,1.76,12.81,2.44,18.75,0.2c1.87-0.71,3.44-1.67,4.48-3.45c0.94-1.61,1.34-3.98,0.76-5.78c-0.59-1.81-1.71-3.57-3.45-4.48
					c-1.91-1.01-3.66-1.04-5.78-0.76c-6.28,0.85-11.63,5-15.23,10.03c-1.6,2.23-2.8,4.98-3.33,7.67c-0.39,1.98-0.58,4.01-0.58,6.03
					c0,1.56,0.17,3.16-0.03,4.72c0.09-0.66,0.18-1.33,0.27-1.99c-0.04,0.23-0.1,0.44-0.19,0.65c0.25-0.6,0.5-1.19,0.76-1.79
					c0.48-0.7,1.08-1.28,1.8-1.74c0.6-0.25,1.19-0.5,1.79-0.76c-0.43,0.18-0.85,0.27-1.31,0.34c0.66-0.09,1.33-0.18,1.99-0.27
					c-2.53,0.28-4.89,0.61-7.25,1.56c-2.28,0.92-4.42,1.99-6.49,3.31c-3.33,2.13-6.48,4.57-10.14,6.12c0.6-0.25,1.19-0.5,1.79-0.76
					c-1.77,0.72-3.6,1.17-5.5,1.43c0.66-0.09,1.33-0.18,1.99-0.27c-3.38,0.41-6.77,0.26-10.15,0.07c2.41,1.84,4.82,3.67,7.23,5.51
					c-0.25-0.63-0.42-1.26-0.54-1.93c0.09,0.66,0.18,1.33,0.27,1.99c-0.09-0.8-0.09-1.56,0-2.36c-0.09,0.66-0.18,1.33-0.27,1.99
					c0.17-1.09,0.47-2.11,0.88-3.13c-0.25,0.6-0.5,1.19-0.76,1.79c0.48-1.11,1.05-2.16,1.7-3.18c0.31-0.48,0.63-0.94,0.96-1.4
					c0.3-0.41,1.08-1.21-0.28,0.35c0.19-0.21,0.36-0.45,0.54-0.67c1.53-1.89,3.17-3.69,4.89-5.4c1.67-1.66,3.44-3.24,5.27-4.72
					c0.28-0.22,0.55-0.47,0.84-0.67c-0.22,0.15-1.3,0.99-0.5,0.39c0.46-0.34,0.92-0.68,1.38-1.01c1-0.71,2-1.47,3.09-2.03
					c-0.6,0.25-1.19,0.5-1.79,0.76c0.21-0.1,0.42-0.17,0.65-0.21c-0.66,0.09-1.33,0.18-1.99,0.27c0.11-0.01,0.21-0.01,0.32-0.02
					c-0.66-0.09-1.33-0.18-1.99-0.27c0.1,0.02,0.2,0.04,0.31,0.06c-0.6-0.25-1.19-0.5-1.79-0.76c-0.68-0.68-1.36-1.35-2.04-2.03
					c-0.25-0.6-0.5-1.19-0.76-1.79c0.08,0.21,0.12,0.42,0.14,0.64c-0.09-0.66-0.18-1.33-0.27-1.99c0.03,0.58,0,1.15-0.07,1.73
					c0.09-0.66,0.18-1.33,0.27-1.99c-0.14,0.93-0.38,1.82-0.73,2.7c0.25-0.6,0.5-1.19,0.76-1.79c-0.28,0.65-0.6,1.27-0.98,1.86
					c-0.17,0.26-0.85,1.16-0.03,0.1c0.85-1.11,0-0.05-0.22,0.17c-0.2,0.21-0.43,0.4-0.63,0.61c-0.91,0.92,1.53-0.97,0.41-0.31
					c-0.61,0.36-1.19,0.72-1.84,1.01c0.6-0.25,1.19-0.5,1.79-0.76c-0.44,0.18-0.87,0.33-1.33,0.45c-3.77,1.07-6.49,5.35-5.24,9.23
					c1.24,3.84,5.18,6.39,9.23,5.24c4.94-1.4,9.47-4.99,11.66-9.7c1.21-2.6,2.03-5.3,1.98-8.2c-0.05-2.51-0.88-4.82-2.61-6.67
					c-2.07-2.21-5.61-3.02-8.48-2.19c-2.52,0.73-4.69,2.42-6.76,3.97c-2.17,1.63-4.3,3.31-6.32,5.13c-3.6,3.26-6.82,6.9-9.71,10.8
					c-3.65,4.92-6.28,11.91-3.89,17.94c0.62,1.57,1.31,2.83,2.69,3.9c1.36,1.05,2.8,1.51,4.54,1.61c3.23,0.18,6.47,0.34,9.7-0.02
					c4.04-0.45,7.61-1.39,11.26-3.22c4.64-2.33,8.53-5.92,13.32-7.98c-0.6,0.25-1.19,0.5-1.79,0.76c1.36-0.56,2.75-0.97,4.2-1.18
					c-0.66,0.09-1.33,0.18-1.99,0.27c2.19-0.26,4.17-0.4,6.14-1.48c2.24-1.22,3.98-3.61,4.53-6.09c0.72-3.24,0.08-6.6,0.47-9.88
					c-0.09,0.66-0.18,1.33-0.27,1.99c0.19-1.28,0.53-2.5,1.01-3.7c-0.25,0.6-0.5,1.19-0.76,1.79c0.4-0.91,0.86-1.79,1.41-2.61
					c0.13-0.19,0.27-0.38,0.4-0.57c0.48-0.71-1.11,1.32-0.52,0.69c0.36-0.39,0.69-0.79,1.07-1.16c0.33-0.33,0.69-0.64,1.04-0.94
					c0.75-0.66-0.57,0.5-0.69,0.52c0.17-0.04,0.42-0.3,0.57-0.4c0.88-0.58,1.81-1.07,2.77-1.48c-0.6,0.25-1.19,0.5-1.79,0.76
					c1.2-0.48,2.43-0.8,3.71-0.98c-1.33-4.82-2.66-9.64-3.99-14.46c-1.24,0.47-2.5,0.78-3.81,0.97c0.66-0.09,1.33-0.18,1.99-0.27
					c-1.91,0.23-3.81,0.19-5.72-0.04c0.66,0.09,1.33,0.18,1.99,0.27c-3.56-0.49-7.01-1.57-10.32-2.96c0.6,0.25,1.19,0.5,1.79,0.76
					c-1.94-0.83-3.82-1.78-5.64-2.86c-2.71-1.61-5.15-3.2-8.42-3.37c-4.85-0.26-9.7,3.15-13.63,5.68
					c-6.87,4.44-13.26,9.77-18.72,15.87c-3.28,3.67-6.3,7.61-8.99,11.73c-2.15,3.29-0.77,8.43,2.69,10.26
					C152.8,209.06,157.02,207.9,159.32,204.39L159.32,204.39z"/>
			</g>
		</g>
		<g>
			<path class="st3" d="M142.3,209.99c-0.05-2.64,0.74-5.28,2.22-7.46c0.7,1.28,0.82,2.86,0.32,4.23c-0.05,0.13-0.14,0.28-0.28,0.26
				s-0.04-0.3,0.04-0.19"/>
			<g>
				<path class="st3" d="M143.55,209.99c0-0.35,0-0.69,0.02-1.04c0.01-0.13,0.02-0.26,0.03-0.39c0-0.04,0.06-0.52,0.03-0.31
					c0.09-0.62,0.23-1.23,0.4-1.83c0.09-0.31,0.2-0.62,0.31-0.92c0.13-0.34,0.12-0.32,0.28-0.65c0.28-0.59,0.6-1.15,0.96-1.69
					c-0.72,0-1.44,0-2.16,0c0.04,0.07,0.08,0.15,0.11,0.22c0.03,0.06,0.07,0.17,0.02,0.04c0.06,0.15,0.11,0.31,0.16,0.47
					c0.05,0.16,0.08,0.32,0.11,0.49c0.02,0.08,0.03,0.17,0.01,0.04c0.01,0.1,0.02,0.21,0.02,0.31c0.01,0.17,0.01,0.33,0,0.5
					c0,0.08-0.01,0.17-0.02,0.25c-0.02,0.21,0.03-0.17,0,0.04c-0.03,0.16-0.06,0.33-0.11,0.49c-0.02,0.08-0.06,0.16-0.07,0.24
					c-0.03,0.08-0.03,0.08,0.01,0.01c0.06-0.14,0.16-0.25,0.31-0.32c0.21-0.06,0.42-0.11,0.63-0.17c-0.03,0-0.05,0-0.08,0.01
					c0.21,0.06,0.42,0.11,0.63,0.17c-0.01-0.01-0.03-0.01-0.04-0.02c0.15,0.15,0.3,0.3,0.45,0.45c-0.01-0.01-0.01-0.03-0.02-0.04
					c0.06,0.21,0.11,0.42,0.17,0.63c-0.04,0.16-0.09,0.33-0.13,0.49c-0.25,0.19-0.5,0.38-0.75,0.57c0.01,0,0.02-0.01,0.03-0.01
					c-0.32-0.04-0.64-0.08-0.96-0.13c0.01,0.01,0.02,0.02,0.04,0.02c0.54,0.37,1.41,0.12,1.71-0.45c0.33-0.63,0.13-1.32-0.45-1.71
					c-0.6-0.41-1.44-0.14-1.79,0.45c-0.31,0.52-0.25,1.24,0.19,1.68c0.5,0.5,1.29,0.49,1.83,0.07c0.41-0.31,0.58-0.8,0.71-1.28
					c0.43-1.6,0.2-3.32-0.57-4.77c-0.47-0.88-1.66-0.74-2.16,0c-1.59,2.37-2.43,5.24-2.39,8.09c0.01,0.65,0.57,1.28,1.25,1.25
					C142.97,211.21,143.56,210.69,143.55,209.99L143.55,209.99z"/>
			</g>
		</g>
	</g>
</g>
</svg>
