<?xml version="1.0" encoding="UTF-8"?>
<svg id="Layer_1" data-name="Layer 1" xmlns="http://www.w3.org/2000/svg" viewBox="0 0 376.19 79.54">
  <defs>
    <style>
      .cls-1 {
        fill: #fff;
      }
    </style>
  </defs>
  <path class="cls-1" d="M154.75,6.82h.69c.42-.06,.68-.09,.76-.09,.05,0,.27,.04,.68,.13l.49-.23,.27-.12,.23-.1,.76,.26h.36c.12,0,.26,.06,.42,.17,.16-.07,.26-.1,.3-.1l1.11,.09c.42-.07,.65-.1,.69-.1h.04c.38,.03,.66,.04,.85,.04,.62,.02,1.09,.1,1.4,.23-.04,.08-.06,.13-.06,.17,0,.12,.05,.18,.16,.2,.89,.19,1.34,.3,1.34,.33,0,.04-.04,.08-.13,.12-.85,.38-1.27,.69-1.28,.95l.03,.07c.03,.08,.08,.24,.16,.49-.14,.22-.22,.38-.22,.48,0,.4,.13,.75,.39,1.04-.02,.13-.03,.25-.03,.36,0,.05,0,.09,.01,.12,.11,.35,.16,.52,.16,.53,0,.1-.11,.2-.33,.3,.22,.2,.41,.35,.58,.43,.38,.21,.56,.34,.56,.39,0,.09-.18,.22-.55,.39-.37,.16-.55,.33-.55,.49v2.77l-.04,.35c.09,.05,.2,.1,.33,.14-.03,.18-.05,.32-.07,.4-.05,.21-.07,.36-.07,.45,0,.08,.03,.24,.1,.48l.46-.1v.26c-.23,.04-.36,.1-.39,.17-.02,.03-.03,.15-.04,.37-.13,.37-.19,.56-.19,.58,0,.03,0,.13,.03,.32l.07,.66c.06,.31,.09,.49,.09,.55,0,.16-.02,.37-.07,.62-.05,.25-.07,.41-.06,.49v2.35l-.09,.3h.06l.23,.22c-.03,.18-.04,.32-.04,.4,0,.05,0,.12,.01,.23l-.22,.26c0,.21-.01,.5-.04,.88v.75l-.04,.63h0c0,.15,.1,.32,.29,.52-.23,.19-.38,.36-.43,.49-.04,.1-.06,.32-.06,.66l-.06,.43-.06,.76-.1,.4v.42c-.07,.31-.12,.48-.12,.52,0,.12,.08,.28,.25,.48,.17-.08,.54-.29,1.1-.63,.03-.02,.16-.03,.39-.03l.22-.23c.08-.07,.21-.13,.39-.19,.28-.08,.45-.13,.5-.17,.04-.04,.09-.24,.14-.59-.12-.45-.19-.72-.19-.81,0-.14,0-.3,.03-.46,.11-.76,.15-1.2,.14-1.33-.05-.74-.07-1.15-.07-1.23,0-.07,0-.13,.01-.19,.04-.16,.06-.25,.06-.26,0-.02-.03-.12-.09-.3-.03-.07-.05-.2-.06-.39l-.48,.13-.09-.32h0c0-.2,.17-.31,.52-.36l.04-.04c0-.12-.01-.23-.01-.3,0-.11,.07-.34,.22-.69-.09-.27-.13-.43-.14-.48,0-.08-.02-.37-.04-.88l-.04-.56h0c0-.17,.03-.45,.1-.85l-.16-.07c0-.13,.01-.24,.01-.3,0-.11,0-.21-.01-.3-.04-.34-.06-.55-.06-.63,0-.1,.06-.21,.19-.35-.81-.3-1.21-.65-1.21-1.05,0-.43,.42-.87,1.25-1.31l-.4-.19v-.48l-.33-.27,.04-.04v-.09c.12-.1,.21-.15,.29-.17,.12-.04,.19-.06,.2-.07,.12-.05,.17-.17,.17-.36,0-.03,0-.17-.03-.42-.02-.2-.03-.45-.04-.75l-.04-.72c-.07-.75-.1-1.21-.1-1.37,0-.15,0-.3,.03-.43,.04-.27,.06-.45,.06-.55,0-.09-.05-.22-.14-.4l-.35-.19-.03-.46h.25c.03-.18,.07-.32,.13-.4,.12-.18,.17-.28,.17-.29,0-.08-.14-.17-.43-.27-.6-.21-.89-.45-.89-.72,0-.07,.08-.2,.25-.4,.21-.26,.34-.42,.38-.49,.25-.43,.4-.67,.45-.71,.35-.29,.52-.47,.52-.53,0,0-.03-.05-.09-.13,.12-.07,.25-.1,.4-.1,.11,0,.22,0,.35,.01,.56,.05,.87,.07,.94,.07h.01c.12,0,.24-.02,.36-.06l.17-.06,.68,.06,.39,.03,.29,.1,.42-.53,.92,.53,.56-.09c1.02,.06,1.55,.09,1.6,.09,.15,0,.32,0,.49-.03,.69-.09,1.06-.13,1.1-.13,.2,0,.43,.02,.68,.07,.29,.07,.49,.1,.61,.1,.05,0,.2-.02,.46-.06,.1,0,.19-.01,.27-.01,.08,0,.28,.03,.61,.1,.12,.02,.23,.03,.3,.03,.22,0,.44-.05,.66-.16,.21-.11,.34-.18,.38-.23l.35-.46s.16-.12,.36-.2l.06-.25,.3-.26c-.07-.15-.18-.24-.35-.26l-.36,.14-.32,.07-.75,.81-.32-.69c-.03-.07-.09-.1-.17-.1-.03,0-.06,0-.1,.03-.5,.25-.76,.38-.78,.38-.35,0-.52,.01-.53,.04l-.25,.42c-.18-.41-.29-.64-.32-.69h-.03l-.95,.17c-.13,0-.36-.02-.66-.06l-.19,.39-.07,.04-.63-.2s-.21-.02-.53-.03h-.27s-.78,.03-.78,.03h-1.02s-.4,0-.4,0c-.04,0-.21-.03-.52-.1l-.46,.09c-.63-.12-.99-.19-1.05-.19-.23,0-.54,.11-.92,.33-.29-.11-.48-.17-.58-.2-.14-.05-.43-.09-.87-.12-.24-.07-.37-.1-.39-.1-.06,0-.12,.01-.19,.04-.35,.12-.54,.17-.58,.16l-2.02-.12c-.28-.02-.49-.03-.62-.03-.26,0-.66,.03-1.2,.09-.15,0-.25,.01-.3,.01h-.01l-.62-.07-1.73-.13c-.34-.03-.76-.08-1.27-.16l-.56-.07c-.47-.31-.9-.46-1.28-.46s-.7,.07-.94,.2c-.74,.43-1.23,.69-1.47,.76-.09,.15-.17,.26-.25,.33-.13,.13-.2,.24-.2,.3,0,0,0,.02,.03,.04,0,.03,.02,.05,.03,.07,.4-.05,.69-.07,.85-.07,.09,0,.14,0,.17,.01,.41,.1,.66,.14,.75,.14h.52Z"/>
  <path class="cls-1" d="M184.49,27.67c.11-.12,.16-.22,.16-.29v-.26s-.01-.25-.01-.25l-.07-.39,.13-.63-.07-.46c-.02-.57-.07-.98-.14-1.24-.06-.2-.21-.45-.46-.74v-.09c.08-.08,.22-.12,.42-.12,.04-.77,.09-1.3,.14-1.59,0-.06,.03-.19,.07-.39-.63-.13-.95-.32-.95-.56,0-.08,.35-.43,1.05-1.05l.5-.17,.84-.43,.19-.04c.42-.1,.81-.15,1.17-.16,.06,0,.29-.01,.71-.04,.12,0,.21-.01,.29-.01,.1,0,.41,.04,.95,.12,.36,0,.56,0,.61,.01,.07,.02,.29,.12,.68,.32,.28,.07,.44,.12,.49,.16,.15,.1,.27,.23,.35,.4,.13,.27,.2,.43,.2,.48h0c0,.06-.02,.13-.06,.22-.04,.08-.06,.12-.06,.13s.03,.24,.1,.69v.1s0,.11-.01,.17c-.11,.81-.16,1.38-.16,1.7l.25,.14c-.07,.5-.16,.9-.27,1.21l-.09,.53-.04,.19c.13,.37,.2,.59,.2,.68,0,.38-.08,.75-.25,1.11-.13,.29-.24,.55-.3,.79l.5,.45c.15-.08,.34-.15,.55-.23,.17-.07,.34-.16,.5-.29,.32-.04,.59-.13,.81-.27,0-.11-.01-.16-.01-.17l.03-1.24c-.12-.61-.19-.94-.19-1s.09-.23,.26-.52v-.16s-.06-.86-.06-.86v-.36s0-.12,.06-.26l-.39-.4,.04-.13,.29-.35-.22-.56,.17-.17c.11-.12,.17-.34,.2-.66,.03-.36,.04-.69,.04-1,0-.26-.1-.52-.3-.78-.21,0-.38-.04-.5-.13l.22-.43c-.31-.13-.51-.27-.62-.4-.31-.35-.47-.52-.48-.53-.08-.05-.54-.1-1.4-.16l-.87-.06c-.08,0-.13,.03-.17,.12-.09,.16-.16,.28-.23,.35h-.35l-.09-.32c-.14-.14-.27-.22-.38-.22-.1,0-.37,.04-.81,.13-.27,.06-.51,.16-.74,.3l-.61-.12c-.72,.7-1.34,1.2-1.86,1.49-.1-.22-.14-.43-.14-.63,0-.49,.06-1,.17-1.51,.02-.07,.03-.12,.03-.17,0,0-.03-.16-.09-.46l.03-.29-.1-.61c.11-.3,.16-.46,.16-.49,0-.02-.02-.29-.07-.82l-.09-.56c.11-.4,.16-.64,.16-.72,0-.16-.03-.28-.09-.35l-.26-.3s-.07-.18-.07-.39c.22-.23,.33-.45,.33-.65,0-.09,0-.2-.01-.33-.02-.17-.03-.3-.03-.38l.14-2.52c-.1,.02-.19,.05-.29,.1-.13,.09-.25,.13-.36,.13-.04-.13-.06-.25-.06-.35,0-.06,.02-.14,.07-.25s.09-.17,.12-.19l.25-.12,.13-.27c.11-.24,.16-.4,.16-.48,0-.14-.02-.24-.07-.29l-1.11-1.05,.55-.58c.06-.07,.32-.2,.78-.39-.14-.09-.26-.13-.35-.13-.25,0-.5,.06-.76,.19l-.95,.49c-.31,.15-.5,.31-.59,.48l.29,.29c0,.12-.01,.24-.01,.33s.12,.51,.35,1.24c-.06,.36-.09,.56-.09,.62,0,.11,0,.32,.03,.65,0,.15,.01,.33,.01,.52,0,.13,0,.33-.01,.58,.2,.15,.3,.3,.3,.45,0,.05-.06,.24-.17,.58-.02,.21-.05,.39-.09,.53,.48,.03,.82,.14,1.02,.35h0c0,.05-.23,.24-.68,.58-.18,.14-.27,.33-.27,.56,0,.28,.05,.75,.14,1.43,.03,.17,.04,.33,.04,.48,0,.13-.02,.34-.06,.62l.33,.23c.05,.24,.13,.47,.25,.68l-.49,.06c-.05,.9-.07,1.72-.07,2.45,0,.59,.06,1.11,.17,1.56l.35-.1c.03,.17,.04,.33,.04,.46,0,.11-.03,.18-.09,.23-.24,.21-.37,.34-.38,.38-.02,.09-.04,.18-.06,.27l.04,.84-.07,1.08,.03,.53s0,.08-.01,.17c0,.11-.01,.18-.01,.23v.68l-.04,.74h0c0,.05,.06,.17,.17,.38,.05,.09,.07,.16,.07,.23,0,.12-.03,.23-.1,.35-.13,.25-.2,.38-.2,.4v.42c-.12,.43-.19,.79-.2,1.08l.33,.29c.31-.29,.54-.46,.69-.5,.6-.19,.9-.3,.91-.32Z"/>
  <path class="cls-1" d="M208.44,25.06c-.15,.26-.32,.49-.49,.69-.07,.1-.31,.27-.74,.53-.43,.27-.73,.44-.89,.5-.12,.04-.34,.07-.68,.09l-.71,.2-.92,.1c-.37,.12-.61,.17-.74,.17-.13,0-.26-.03-.38-.09-.52-.24-.81-.36-.87-.36-.08,0-.17,0-.27,.03l-.25-.38c-.27-.02-.44-.06-.52-.12-.11-.06-.18-.24-.23-.53-.34-.05-.58-.13-.72-.26-.15-.13-.28-.4-.37-.79l-.45-.12,.07-.53-.26-.14c-.09-.21-.18-.62-.27-1.24-.02-.09-.18-.24-.49-.45,.17-.17,.29-.33,.35-.48,.05-.12,.1-.35,.14-.68,.2-.03,.58-.13,1.14-.3h.61s.68-.1,.68-.1l.66-.06,.53-.06c.68,0,1.1,0,1.25-.03l.07,.06c.21-.03,.39-.04,.55-.04,.04,0,.36,.06,.98,.17,.39-.39,.62-.59,.68-.59,.03,0,.34,.21,.94,.63l.43-.12,.49,.09,.55-.2c.18,.07,.33,.11,.43,.13l.1-.1c-.08-.21-.14-.38-.2-.52-.09-.26-.17-.48-.25-.66-.09-.21-.25-.44-.48-.68-.73-.76-1.14-1.16-1.24-1.21-.18-.08-.28-.12-.3-.14-.06-.05-.16-.16-.3-.33l-.46,.29c-.19-.51-.56-.76-1.1-.76-.06,0-.37,.11-.94,.32l-.71,.06-1.1,.35-.39,.07-1.07,.74-1.05,.65c-.42,.38-.8,.73-1.12,1.04l-.32,.68-.49,.58c-.05,.06-.13,.27-.25,.65-.13,.48-.2,.83-.2,1.04,0,.68,.03,1.09,.1,1.23,.25,.51,.38,.78,.38,.81,0,.08-.05,.19-.14,.35,.29,.29,.45,.47,.49,.55l.26,.46c.02,.09,.16,.21,.43,.38,.32,.19,.49,.3,.5,.32,.28,.26,.44,.4,.49,.43,.08,.04,.48,.17,1.2,.39l.3,.19,.27,.03c.58,.07,.93,.1,1.05,.1s.3-.01,.53-.04h.25s.5-.1,.5-.1l.85,.13s.16-.05,.46-.14c.11-.03,.36-.06,.75-.1,.23-.03,.64-.12,1.24-.29,.26-.02,.48-.09,.65-.2,.26-.19,.42-.29,.48-.29,.09,0,.19,.03,.32,.09,.11-.22,.36-.67,.76-1.35,.06-.11,.12-.33,.19-.68-.16-.12-.29-.19-.37-.19-.19,0-.33,.06-.4,.17Zm-8.62-5.54c.16-.12,.27-.21,.33-.26,.31-.28,.5-.44,.56-.49,.31-.13,.66-.27,1.07-.42,.51-.12,.77-.18,.79-.2l.49-.29h.29c.67,.01,1.15,.03,1.43,.07,.12,.19,.22,.3,.27,.33l.48,.23c.06-.02,.2,.12,.43,.43,.08,.1,.12,.15,.14,.17,.12,.12,.17,.23,.17,.32,0,.04,0,.09-.01,.14-.04,.1-.06,.14-.07,.14l-.82-.07c-.26,.1-.52,.16-.78,.2-.07,0-.2,.03-.39,.07l-.24-.3c-.21,.02-.37,.04-.46,.07-.42,.1-.7,.14-.82,.14h-.03c-.44-.12-.68-.19-.71-.19-.06,0-.11,.02-.16,.06l-.56,.68-.32-.32-1.05-.42-.03-.03v-.09Z"/>
  <path class="cls-1" d="M180.24,64.25v-.1c.02-.38,.03-.58,.03-.59,0-.06-.06-.17-.16-.35-.1,0-.16,0-.19-.03-.07-.04-.17-.19-.3-.46l.3-.13c.03-.16,.06-.28,.1-.36l.06-.1-1.2-1,.38-.15c-.04-.21-.06-.37-.06-.44,0-.09,.07-.32,.22-.71h.33c.03-.2,.06-.38,.1-.55,.08-.37,.12-.64,.13-.82,.02-.64,.03-1.05,.03-1.23,0-.35-.03-.7-.09-1.07,0-.1-.01-.17-.01-.22,0-.02,.03-.29,.1-.81v-.03c0-.09-.1-.29-.29-.61-.31,.05-.62,.1-.95,.16h-.01l-.55-.07s-.17,.01-.4,.04c-.08,0-.15,.01-.22,.01-.17,0-.45-.04-.84-.12-.2,.18-.37,.27-.5,.27-.05,0-.08,0-.1-.01l-.75-.26c-.06-.02-.25-.03-.59-.03-.26,0-.4,0-.43,.01-.12,.04-.25,.12-.42,.26-.3,.23-.45,.42-.45,.56s.08,.22,.23,.22c.09,0,.18-.04,.29-.13,.22,.06,.36,.09,.4,.09,.91,0,1.41-.01,1.5-.04,.24-.07,.37-.1,.38-.1h.01l.22,.14c.12-.02,.24-.03,.33-.03,.09,0,.17,.03,.26,.09,.28,.21,.45,.56,.52,1.05h.25c.37,0,.7,.09,1.01,.26,.04,.02,.06,.03,.06,.04,0,.02-.01,.03-.04,.04l-.89,.36c-.17,.07-.26,.25-.26,.56v.14l.03,1.59c.11,.61,.16,.96,.16,1.05,0,.34-.04,.62-.13,.84l-.03,.09,1.24,1.47-1.2,.68,1.23,.75-1.21,.35c-.11,.03-.16,.12-.16,.29,0,.03,0,.08,.03,.16-.2,.04-.58,.14-1.12,.32l-.74,.09c-.59,.13-.94,.2-1.05,.2s-.28-.01-.49-.04c-.07,.33-.19,.49-.38,.49-.04,0-.07,0-.09-.01-.27-.12-.43-.19-.48-.19s-.36,.06-.94,.17c-.87,.1-1.32,.15-1.34,.16-.08,.05-.16,.13-.25,.26-.38,.05-.65,.07-.82,.07-.09,0-.16,0-.23-.01-.33-.02-.52-.03-.59-.03s-.25,0-.55,.03c-1.07,.04-1.63,.06-1.7,.06s-.12,0-.17-.01l-.25-.06s-.12,.04-.33,.13c-.1,.04-.22,.06-.36,.06-.46,0-.84-.12-1.14-.38-.37,.49-.66,.74-.89,.74-.03,0-.21-.08-.55-.23-.34-.15-.58-.27-.73-.35-.52-.28-.96-.62-1.33-1.02l-.1,.12-.13-.2c-.05-.06-.16-.11-.33-.16-.22-.08-.34-.12-.37-.14s-.11-.09-.25-.24c-.05-.05-.13-.12-.26-.23-.3-.26-.53-.49-.69-.69-.18-.23-.4-.42-.66-.58-.18-.12-.28-.22-.3-.3l-.12-.53c-.02-.12-.13-.33-.33-.63-.06-.07-.16-.22-.3-.46-.13,.12-.25,.17-.36,.17s-.16-.05-.16-.16c0,0,.06-.33,.17-.95v-.03c-.2-.37-.29-.83-.3-1.4l-.43-.1c-.8-.07-1.2-.12-1.2-.17h.09c.59-.16,1.06-.28,1.41-.38,0-.1-.03-.22-.07-.36-.09-.27-.14-.5-.17-.71l-.29,.04c-.13-.15-.2-.3-.2-.43,0-.21,.14-.4,.42-.56-.06-.37-.09-.59-.09-.68,0-.12,.03-.47,.1-1.07v-.03c0-.13-.16-.3-.48-.49,.05-.17,.22-.29,.5-.36,.04-.41,.11-.74,.22-.98,.18-.42,.27-.7,.27-.82,0-.23-.02-.5-.06-.79,.13-.15,.21-.24,.22-.27,.01-.02,.2-.5,.57-1.42,.14-.26,.22-.4,.23-.43,0-.02,.02-.11,.03-.27h-.17s.04-.17,.04-.17h.13s.03,.06,.03,.06c.11-.12,.19-.26,.26-.45l.35-.04c.2-.29,.4-.61,.61-.95,.2-.32,.4-.6,.61-.85,.24-.35,.38-.53,.4-.56,.09-.08,.23-.19,.43-.35l-.07-.39,.36,.12c.3-.24,.48-.42,.55-.55,.08-.12,.13-.19,.16-.19,.15-.04,.26-.08,.33-.13,.23-.17,.37-.28,.43-.33,.14-.12,.26-.34,.35-.66,.09,0,.15-.01,.19-.01,.12,0,.28,.03,.49,.09,.12-.19,.21-.3,.26-.33l.76-.46c.4-.28,.72-.47,.95-.56,.41-.17,.82-.33,1.23-.46,.07-.04,.11-.14,.13-.32,.45,0,.72-.03,.81-.07,.41-.23,.67-.35,.78-.35,.09,0,.28,.07,.59,.2l.97-.32c.31,.04,.47,.06,.48,.06,.12,0,.24-.04,.33-.13l.53-.56,.46,.45,.68,.13,.16,.07s.11-.05,.25-.17c.04-.04,.08-.06,.13-.06,.11,0,.34,.11,.71,.32l.92,.09,.63,.23c.45,.1,.74,.14,.87,.14,.11,0,.32-.12,.63-.38,.14-.12,.3-.22,.46-.3,.21-.11,.34-.17,.38-.2,.08-.05,.13-.13,.16-.26-.15-.16-.27-.25-.36-.25-.06,0-.15,.05-.29,.16h-.07l-.19-.2c-.32,0-.68-.05-1.1-.16-.82-.04-1.24-.06-1.27-.06-.53,0-.86-.03-1-.06h-.01c-.08,0-.26,.2-.56,.61-.8-.44-1.22-.66-1.25-.66-.03,0-.07,0-.12,.03-.35,.12-.52,.19-.53,.19h-.53s-.29,.03-.29,.03l-.42,.04-.36,.12c-.66,.13-1.28,.28-1.85,.45-.22,.08-.51,.13-.88,.14l-.42,.16-.87,.29-.53,.26c-.38,.15-.7,.3-.95,.45-.03,.21-.06,.32-.09,.33-.02,.06-.14,.14-.36,.25-.11-.04-.25-.15-.43-.33-.19,.12-.51,.38-.95,.75l-1.2,.76-.25,.27-.36,.25-.36,.35c-.39,.28-.74,.58-1.05,.89-.12,.12-.37,.36-.76,.74l.1,.65c-.13,.08-.24,.12-.3,.12-.09,0-.21-.05-.36-.16-.16,.14-.26,.24-.3,.29l-.37,.62-.58,.71-.25,.39c-.59,.94-.88,1.5-.88,1.69,0,.17,.16,.26,.48,.26l-.1,.5h-.63c-.13,.31-.23,.55-.29,.72,0,.03-.12,.48-.32,1.34l-.13,.4c-.06,.61-.11,1.01-.14,1.21h.38c.06,.2,.12,.49,.17,.86l-.45,.13c-.08,.14-.12,.25-.12,.32s0,.16,.03,.29c.04,.17,.06,.36,.07,.55,.04,.8,.06,1.21,.06,1.24,.08,.32,.12,.5,.12,.53,0,0-.01,.12-.04,.32v.06c0,.24,.07,.56,.2,.95l.63,1.77,.07,.25c.18,.29,.31,.52,.37,.69,.13-.03,.25-.04,.36-.04,.24,0,.36,.13,.36,.4,0,.14-.05,.38-.14,.71,.27,.27,.47,.48,.59,.62,.38,.5,.66,.81,.82,.94,.1,.07,.23,.1,.39,.1,.09,0,.2,0,.33-.01,.15,.15,.26,.36,.32,.62,.18,.13,.44,.38,.78,.72,.29,.32,.93,.62,1.93,.91l.09-.25c.22,.02,.39,.04,.5,.07,.11,.04,.25,.15,.43,.33,.47,0,.83,.03,1.07,.06,.29,.03,.44,.04,.45,.04,1.05,0,1.59,0,1.62-.01l.22-.16,.45-.04,.27-.03c.08,0,.19,.07,.35,.23,.73-.07,1.54-.17,2.44-.32l.53-.03,1.17-.27c.3,0,.54-.04,.74-.09l.78-.19c.63,0,1.01-.02,1.14-.06,.43-.19,.72-.29,.85-.29,.06,0,.13,0,.23,.03,.07,0,.12,.01,.17,.01h.03c.96-.16,1.57-.25,1.83-.27l.19-.17c.24,.06,.43,.09,.58,.09s.57-.1,1.27-.29c.78,0,1.18-.02,1.21-.03,.08-.04,.18-.16,.3-.38l.43-.1c0-.09-.01-.16-.01-.23s0-.13,.03-.19l.1-.32s-.04-.1-.13-.27c-.05-.1-.07-.26-.07-.5Z"/>
  <path class="cls-1" d="M179.66,60.85s.01-.02,.02-.03l-.42,.17s0,.05,.01,.08c.23-.1,.36-.17,.39-.22Z"/>
  <path class="cls-1" d="M179.86,60.5c-.08,.18-.14,.28-.18,.32l.41-.16c-.07-.1-.14-.15-.23-.16Z"/>
  <path class="cls-1" d="M195.19,61.89c-.16-.23-.25-.42-.25-.56,0-.17,.09-.35,.26-.52-.11-.47-.16-.87-.16-1.18,0-.11,0-.21,.01-.32,.04-.25,.06-.42,.06-.5s0-.19-.01-.32c-.26-.12-.39-.25-.39-.39,0-.12,.11-.25,.33-.39,0-.18-.03-.55-.06-1.11-.05-.25-.09-.48-.12-.69h-.06c-.11-.11-.21-.37-.32-.79l.04-.56s0-.1-.03-.2l-.36-.26c0-.2-.08-.37-.2-.49-.17,.05-.31,.09-.4,.13-.14,.08-.25,.12-.33,.12-.12,0-.17-.07-.17-.2,0-.1,.08-.22,.25-.36-.21-.2-.38-.31-.52-.32-.15-.03-.42-.08-.79-.14l-.35-.04c-.38-.12-.64-.19-.78-.2-.12,0-.42,0-.89-.01l-.5,.09h-.27s-.65,.2-.65,.2h-.59l-.58,.25-.92,.29-.43,.23-.68,.16c-.06,0-.17,.09-.33,.23-.07,.06-.18,.15-.35,.27,.13,.18,.25,.3,.33,.36,.08,.05,.28,.11,.61,.19,.3,.11,.48,.16,.53,.16,.15,0,.29-.03,.4-.1,.04-.02,.12-.12,.25-.3l.2-.13c.33-.26,.74-.5,1.24-.71,.2-.08,.35-.17,.45-.27,.12-.13,.28-.24,.49-.32l.27,.35c.14-.02,.25-.03,.33-.03,.07,0,.21,.03,.42,.09h.46c.63,.1,1,.16,1.1,.2,.08,.06,.32,.35,.74,.88,.24,0,.38,0,.43,.03,.6,.18,.89,.28,.89,.29l-.75,.94c.08,.26,.12,.41,.12,.46,0,.24-.09,.42-.26,.55-.09,.06-.3,.1-.63,.13l-1.14,.14h-.56l-.26,.03-.27,.03-.46,.16c-.49,.05-.78,.08-.87,.1-.12,.04-.37,.15-.74,.33-.5,.11-.79,.18-.87,.23-.11,.07-.22,.19-.33,.38-.11-.02-.2-.03-.27-.03-.07,0-.24,.09-.5,.26-.47,.19-.77,.34-.91,.45-.15,.13-.47,.43-.94,.89-.16,.35-.3,.59-.4,.74-.13,.19-.2,.33-.19,.42h0s.14,.63,.14,.63c.05,.25,.09,.42,.13,.52l.33,.12c.09,.26,.2,.44,.35,.55,.16,.12,.41,.25,.75,.38l.45,.19,.61,.06c.62,.12,.99,.19,1.12,.19,.11,0,.31-.05,.61-.16l.61,.04,1.17-.25,.29-.03,.53-.27,.53,.06s.14-.03,.39-.09l.42-.09c.53-.23,.93-.38,1.21-.45l-.22,.97c.12,.11,.22,.16,.32,.16,.04,0,.24-.06,.59-.19l.35-.1,.55-.25c.22-.09,.37-.16,.45-.23,.05-.12,.12-.24,.23-.36-.08-.19-.13-.32-.16-.39-.05-.14-.08-.24-.1-.27Zm-1.99-.98l-.09,.46c-.25,.07-.42,.14-.5,.23-.04,.04-.14,.18-.3,.43l-.63,.25-.55,.23-.32-.06-.38,.17-.78,.27-.4-.09c-.19,.12-.3,.19-.32,.19-.1,0-.21-.05-.35-.14-.15,.13-.28,.2-.39,.2-.05,0-.11,0-.19-.01-.08,0-.23-.03-.45-.06-.11-.16-.19-.26-.25-.3-.03,0-.22-.06-.58-.16-.12-.02-.35-.14-.68-.38l-.4,.35-.14-.27c0-.06,.04-.17,.14-.35,.07-.13,.14-.26,.22-.39-.13-.15-.21-.26-.23-.33l-.1-.78c-.08-.09-.12-.14-.12-.17,0-.04,.02-.09,.06-.16,.28-.08,.45-.16,.5-.25,.18-.26,.29-.4,.32-.43,.27-.24,.71-.49,1.33-.76,.46-.16,.71-.26,.75-.29,.26-.17,.41-.26,.46-.26h.03c.2,.06,.31,.09,.33,.09,.08,0,.17-.02,.29-.07,.18-.06,.47-.09,.85-.09l.32-.1c.25,.15,.39,.23,.43,.23h.71s.56,.01,.56,.01h.62c.13,.09,.25,.15,.33,.16-.08,.22-.12,.39-.12,.5,0,.05,0,.1,.01,.16,0,.18,.02,.4,.03,.66v.23c0,.08,0,.2-.01,.36,.06,.11,.15,.21,.29,.3-.04,.17-.14,.31-.32,.4Z"/>
  <path class="cls-1" d="M201.55,61.67l.03-.61-.26-2.35,.04-.1-.45-.06v-.39c.06-.42,.09-.65,.09-.69,0-.13-.01-.31-.04-.52l.26-.16-.04-3.24v-.89l-.16-.12-.32-.69c.2-.18,.3-.35,.3-.49v-.07c-.13-.46-.2-.7-.2-.72,0-.09,.03-.18,.09-.29,.17-.28,.26-.47,.26-.56v-1.83l.07-1.8c0-.09,0-.22-.01-.4-.12-.11-.19-.21-.19-.32,0-.08,0-.25,.03-.52,.2-.2,.3-.39,.3-.58,0-.11-.03-.28-.09-.52l-.3-.04,.09-.46c.14-.16,.23-.29,.25-.39,0-.04,.02-.45,.03-1.23l.06-1.21-.14-.5s0-.04,.01-.09c0-.07,.01-.13,.01-.19v-.03c0-.26-.11-.39-.33-.39h-.13c-.22,.26-.46,.45-.72,.56-.12,.05-.3,.15-.53,.3-.1,.07-.22,.12-.36,.16-.02,.21-.04,.37-.07,.48-.06,.24-.09,.4-.09,.48,0,.09,.19,.38,.56,.88l.74,1-1.08,.76,.04,.09s.04,.1,.09,.27c.05,.17,.08,.26,.08,.28,0,.04-.01,.08-.04,.12-.13,.22-.2,.37-.2,.45v.59c.01,.21,.03,.38,.06,.52,.17,.1,.26,.19,.26,.29,0,.07-.03,.24-.1,.5,.12,.1,.29,.18,.49,.26-.1,.21-.17,.4-.23,.56-.04,.1-.12,.19-.25,.29v3.17l.3,.36c-.05,.17-.08,.41-.09,.71-.15,.34-.23,.55-.23,.65,0,.12,0,.25,.03,.4,.04,.41,.06,.79,.06,1.12,0,.12,0,.19-.01,.23-.11,.39-.16,.61-.16,.63,0,.07,0,.21,.03,.43v.49l.33,.17c0,.24-.07,.5-.17,.78-.14,.38-.22,.58-.22,.61,0,.05,.01,.1,.04,.16,.17,.33,.26,.5,.26,.52l-.13,.36-.1,.52-.03,.19,1.17,.81-1.21,.78,.04,.27-.06,.43-.03,.32c-.08,.27-.12,.42-.12,.45,0,.07,0,.14,.03,.23,.04,.2,.06,.35,.06,.45s0,.22-.01,.36c.1,.04,.16,.06,.2,.06,.14,0,.33-.09,.56-.27,.16,0,.26,0,.28-.01,.02,0,.14-.07,.34-.19,.35-.21,.62-.36,.81-.43-.05-.08-.07-.14-.07-.19,0-.03,.1-.2,.29-.5l-.09-.43Z"/>
  <path class="cls-1" d="M207.46,61.67l.03-.61-.26-2.35,.04-.1-.45-.06v-.39c.06-.42,.09-.65,.09-.69,0-.13-.01-.31-.04-.52l.26-.16-.04-3.24v-.89l-.16-.12-.32-.69c.2-.18,.3-.35,.3-.49v-.07c-.13-.46-.2-.7-.2-.72,0-.09,.03-.18,.09-.29,.17-.28,.26-.47,.26-.56v-1.83l.07-1.8c0-.09,0-.22-.01-.4-.12-.11-.19-.21-.19-.32,0-.08,0-.25,.03-.52,.2-.2,.3-.39,.3-.58,0-.11-.03-.28-.09-.52l-.3-.04,.09-.46c.14-.16,.23-.29,.25-.39,0-.04,.02-.45,.03-1.23l.06-1.21-.14-.5s0-.04,.01-.09c0-.07,.01-.13,.01-.19v-.03c0-.26-.11-.39-.33-.39h-.13c-.22,.26-.46,.45-.72,.56-.12,.05-.3,.15-.53,.3-.1,.07-.22,.12-.36,.16-.02,.21-.04,.37-.07,.48-.06,.24-.09,.4-.09,.48,0,.09,.19,.38,.56,.88l.74,1-1.08,.76,.04,.09s.04,.1,.09,.27c.05,.17,.08,.26,.08,.28,0,.04-.01,.08-.04,.12-.13,.22-.2,.37-.2,.45v.59c.01,.21,.03,.38,.06,.52,.17,.1,.26,.19,.26,.29,0,.07-.03,.24-.1,.5,.12,.1,.29,.18,.49,.26-.1,.21-.17,.4-.23,.56-.04,.1-.12,.19-.25,.29v3.17l.3,.36c-.05,.17-.08,.41-.09,.71-.15,.34-.23,.55-.23,.65,0,.12,0,.25,.03,.4,.04,.41,.06,.79,.06,1.12,0,.12,0,.19-.01,.23-.11,.39-.16,.61-.16,.63,0,.07,0,.21,.03,.43v.49l.33,.17c0,.24-.07,.5-.17,.78-.14,.38-.22,.58-.22,.61,0,.05,.01,.1,.04,.16,.17,.33,.26,.5,.26,.52l-.13,.36-.1,.52-.03,.19,1.17,.81-1.21,.78,.04,.27-.06,.43-.03,.32c-.08,.27-.12,.42-.12,.45,0,.07,0,.14,.03,.23,.04,.2,.06,.35,.06,.45s0,.22-.01,.36c.1,.04,.16,.06,.2,.06,.14,0,.33-.09,.56-.27,.16,0,.26,0,.28-.01,.02,0,.14-.07,.34-.19,.35-.21,.62-.36,.81-.43-.05-.08-.07-.14-.07-.19,0-.03,.1-.2,.29-.5l-.09-.43Z"/>
  <path class="cls-1" d="M224.24,57.33h.23c-.03-.25-.07-.6-.13-1.04-.06-.43-.12-.74-.18-.92s-.21-.47-.44-.85c-.46,0-.79-.16-.98-.46-.17-.31-.27-.48-.29-.5-.04-.05-.21-.16-.5-.35-.39-.27-.86-.46-1.38-.58-.09,.2-.2,.33-.35,.37-.1-.08-.21-.14-.35-.2l-.06-.3c-.36-.08-.64-.12-.87-.12-1.11,0-1.95,.11-2.52,.33-1.12,.41-1.69,.64-1.73,.68-.26,.27-.49,.45-.69,.55-.63,.31-1,.5-1.11,.59-.06,.03-.13,.12-.22,.27-.13,.28-.21,.42-.22,.43-.38,.25-.61,.42-.66,.5-.06,.1-.28,.51-.68,1.24-.19,.51-.33,.89-.4,1.14-.08,.29-.12,.75-.12,1.38v.06c.23,.1,.38,.22,.46,.38-.2,.14-.3,.3-.3,.46,0,.34,.11,.67,.32,1.01,.06,.09,.09,.13,.1,.13,.19,.13,.29,.2,.3,.2,.04,.04,.08,.11,.12,.22,.02,.07,.06,.19,.12,.36,.26,.14,.43,.24,.52,.29,.57,.38,.95,.58,1.14,.62,.36,.06,.54,.09,.56,.1,.07,.03,.17,.12,.3,.27,.21,0,.74,.09,1.59,.23l.46-.06h1.02l1.01-.22c.87-.05,1.33-.08,1.4-.09s.29-.13,.68-.34l.74-.35,.78-.39c.42-.13,.89-.51,1.4-1.12,.14-.23,.39-.76,.75-1.6,.12-.27,.2-.44,.22-.5,.03-.15,.06-.44,.09-.87-.23-.14-.37-.3-.4-.46l.29-.33v-.17Zm-1.59,2.19c0,.12-.02,.21-.06,.27-.04,.06-.18,.2-.42,.43l-.36,.72c-.3,.49-.48,.77-.55,.85-.05,.05-.26,.13-.63,.26-.56,.38-.88,.59-.98,.62-.35,.07-.61,.12-.79,.17-.28,.07-.53,.1-.75,.1-.13,0-.29-.02-.48-.07l-.43-.1h-.85c-.35,0-.69-.08-1.02-.25-.79-.4-1.21-.61-1.27-.61-.07,0-.15,.05-.25,.14-.22,0-.35-.08-.39-.22,.1-.19,.14-.33,.14-.42,0-.04,0-.07-.01-.09-.45-.73-.7-1.15-.75-1.25-.06-.17-.12-.42-.2-.75-.1,0-.19,.06-.29,.14l-.13-.13v-.14c.32-.17,.48-.31,.48-.42,0-.06-.13-.18-.39-.36-.08-.19-.12-.3-.12-.33,.34-.13,.5-.31,.5-.53,0-.06,0-.12-.01-.2,.14-.18,.26-.41,.36-.68l.29-.5c.04-.07,.07-.24,.09-.5l.13-.1,1.73-1.46,.1-.12,.62-.32c.08-.04,.19-.15,.33-.35l.3,.22c.34-.21,.59-.32,.75-.33,.15-.02,.48-.03,.98-.03,.04,0,.21,.04,.5,.12,.24-.1,.39-.14,.45-.14,.21,0,.37,.17,.46,.5,.35,.13,.59,.23,.72,.29,.16,.07,.26,.11,.28,.14,.02,.02,.13,.16,.32,.4,.33,.4,.54,.71,.65,.91h.35l.06,.06c0,.3,.02,.5,.04,.59l.23,.75c.11,.39,.2,.68,.27,.87-.1,.28-.15,.64-.17,1.08l-.06,.29h0c0,.09,.06,.25,.22,.48Z"/>
  <path class="cls-1" d="M241.34,57.49v-.25h0c-.12-.75-.25-1.37-.42-1.87-.12-.31-.35-.64-.68-1l-.59,.12c-.09-.12-.14-.23-.17-.32-.06-.18-.1-.29-.13-.32-.21-.24-.59-.46-1.14-.66-.26-.12-.49-.2-.69-.23-.19-.22-.38-.33-.55-.33-.04,0-.12,0-.23,.01-.03,0-.13,0-.3,0l-1.82-.04c-.75,.04-1.2,.2-1.34,.49-.23-.14-.5-.22-.82-.22-.1,0-.3,.05-.62,.16l-.38,.1c-.66,.37-1.09,.59-1.27,.68-.07-.15-.1-.26-.1-.33,0-.08,.03-.19,.1-.33-.2-.26-.38-.39-.53-.39-.07,0-.36,.15-.88,.45-.38,.32-.62,.52-.72,.61-.15,.12-.24,.19-.26,.22-.02,.03-.05,.12-.09,.27,.25,.17,.39,.31,.42,.4,.04,.18,.11,.65,.2,1.4v.03s-.01,.12-.04,.2c-.02,.09-.03,.13-.03,.14s0,.22,.03,.62v.07c0,.08,0,.24-.01,.49v.38c0,.1,0,.26,.01,.5,.2,.1,.3,.2,.3,.3v.17s.01,.58,.01,.58c-.11,.21-.16,.35-.16,.42v2.23l-.04,.71c-.05,.71-.07,1.1-.07,1.17,0,.29,.15,.47,.45,.55l.04,.91-.22,.13c-.12,1.16-.19,1.77-.19,1.82,0,.22,.07,.44,.22,.66,.37,.6,.55,.92,.55,.98,0,.09-.24,.27-.71,.55l.04,.03c.49,.16,.74,.27,.74,.32,0,.1-.28,.26-.85,.5,.03,.03,.12,.09,.26,.19,.12,.08,.17,.15,.17,.22s-.08,.18-.23,.35c-.03,.03-.08,.09-.14,.19l.12,.81c-.11,.14-.19,.25-.25,.32l-.04,.04,1.1,1.22-.56,.92c-.02,.34-.05,.54-.09,.6-.04,.06-.22,.16-.53,.28l.37,.1h.01c.33-.03,.66-.15,1.01-.36l.33-.13c.11-.22,.18-.35,.22-.39,.06-.08,.2-.19,.43-.35,0-.25-.04-.48-.09-.68-.04-.18-.06-.32-.06-.4,0-.08,0-.16,.01-.26l-.45-.26c.1-.06,.23-.1,.4-.12,.05-.12,.07-.21,.07-.26l-.09-.36c0-.54-.02-.88-.03-1.04-.02-.13-.04-.42-.06-.87l-.26,.04c0-.1,.01-.18,.01-.26,0-.07,0-.12-.01-.16-.11-.39-.16-.61-.16-.65,0-.09,0-.19,.03-.3l.35-.09c-.02-.22-.05-.64-.09-1.27-.07-.36-.11-.57-.13-.63-.04-.11-.06-.17-.08-.18-.01-.01-.26-.16-.74-.44l.22-.16s.09-.14,.12-.32c.03-.17,.06-.27,.1-.29l.45-.25c.07-.04,.1-.12,.1-.26,0-.08,0-.18-.03-.3-.03-.55-.04-.9-.04-1.05,0-.12,.04-.29,.13-.5,.14,.08,.26,.12,.35,.12h.13c.09,0,.16-.01,.22-.01h.25c.12,0,.19-.03,.23-.08,.04-.05,.12-.22,.23-.5l.14-.29s.14,.22,.27,.65l-.04,.26c.39,.05,.78,.1,1.15,.16,.19,.08,.3,.12,.33,.12,.06,0,.2-.05,.42-.16,.08-.04,.13-.06,.17-.06h.99c.14,0,.4-.09,.76-.23,1.37-.46,2.04-.95,2-1.46,.1-.04,.22-.06,.38-.06,.22,0,.35-.02,.38-.03,.32-.14,.54-.48,.66-1l.56,.13c.12-.2,.27-.38,.46-.53l.42-.72c.19-.25,.34-.49,.43-.71,.15-.37,.23-.57,.23-.62v-.03c-.05-.23-.07-.42-.07-.58,0,0,0-.06,.01-.16Zm-1.67,.61c.02,.12,.03,.23,.03,.33,0,.17-.07,.46-.2,.85-.21,.65-.37,1.04-.48,1.17-.07,.07-.31,.27-.72,.62l-.46,.5-.53,.38c-.2,.2-.34,.33-.4,.39-.11,.08-.33,.2-.66,.38l-.45,.22-.55-.61c-.67,.1-1.01,.14-1.02,.14-.06,0-.11,0-.14-.01l-.95-.32s-.2-.03-.49-.03c-.23,0-.4-.03-.5-.07-.15-.06-.26-.09-.32-.09s-.15,.05-.29,.16c-.07-.11-.12-.16-.14-.17-.08-.08-.38-.24-.89-.49-.07-.03-.19-.1-.36-.2,.02-.16,.03-.29,.04-.38,.02-.11,.03-.16,.03-.17l-.06-.79v-.66c-.02-.08-.1-.25-.23-.52,.16-.32,.25-.52,.25-.61h0c-.04-.32-.06-.48-.06-.49,0-.05,0-.16,.03-.35,0-.09,.01-.19,.01-.3,0-.17,0-.38-.01-.61h-.16l-.12-.12v-.07s-.82-.22-.82-.22c.32-.17,.7-.29,1.15-.35,0-.14-.01-.25-.01-.33,0-.19,.03-.35,.1-.46s.24-.19,.5-.23c.2-.13,.35-.21,.43-.23l.39-.06c.65-.19,1.02-.3,1.1-.32,.36-.06,1.02-.09,1.99-.09,.38,0,.64,.03,.76,.09l.3,.17c.37,0,.56,0,.58,.01,.1,0,.32,.15,.66,.42,.07,.06,.21,.15,.42,.29,.3-.05,.48-.07,.55-.07,.16,0,.31,.1,.45,.29-.04,.11-.06,.2-.06,.27,0,.04,.05,.12,.16,.26,.15,.22,.34,.42,.56,.59,.07,.32,.13,.53,.2,.65,.08,.15,.23,.31,.46,.46-.07,.14-.1,.25-.1,.32,0,.1,.01,.25,.04,.45Z"/>
  <path class="cls-1" d="M247.34,45.1c-.1,0-.22,.05-.36,.16-.09,.06-.31,.35-.66,.88-.18,.14-.28,.22-.29,.23-.13,.16-.26,.29-.38,.38-.51,.39-.75,.76-.74,1.1h0c0,.16,.04,.23,.13,.23,.04,0,.19-.07,.46-.22l.5-.35,.4-.26c.4-.38,.83-.72,1.27-1.04,.17-.12,.26-.25,.26-.4,0-.19-.09-.36-.27-.49-.18-.14-.29-.22-.33-.22Z"/>
  <path class="cls-1" d="M246.85,54.26c0-.08,.03-.29,.09-.65,.06-.43,.13-.77,.23-1.01l-.43-.45c-.46,.15-1.01,.48-1.64,.97-.29,.23-.43,.41-.43,.55,.17,.1,.26,.2,.27,.32,.08,.93,.12,1.41,.12,1.43,0,.05-.01,.14-.04,.29,.22-.02,.41-.03,.56-.03,.21,0,.39,.06,.53,.19,.02,.02,.03,.03,.03,.04,0,.09-.31,.19-.94,.3l.03,.33v.22c0,.12,.05,.25,.14,.36-.1,.15-.14,.29-.14,.42v.2c0,.1,.01,.17,.01,.22,0,.11-.01,.26-.04,.48l.25,.19c.03,.17,.06,.31,.09,.4,.06,.22,.09,.37,.09,.45,0,.06-.02,.16-.07,.32-.06,0-.11-.01-.14-.01-.14,0-.22,.08-.23,.23v.26s-.09,1.41-.09,1.41v.71c-.11,.31-.16,.52-.17,.63,0,.08-.03,.24-.07,.48,.12,.12,.23,.17,.35,.17,.08,0,.16-.02,.26-.06,.07-.03,.34-.23,.82-.61,.32-.2,.5-.33,.55-.38,.17-.16,.26-.35,.26-.55,0-.05-.03-.22-.09-.5l-.03-.61c-.12-.52-.18-.85-.19-1l.07-2.75c0-.15,0-.26,.01-.33v-.16s-.01-.71-.01-.71c0-.02,.03-.08,.09-.19-.21-.22-.32-.45-.32-.69l.25-.35v-.53Z"/>
  <path class="cls-1" d="M262.26,61.31l-.04-.69-.03-.79c-.14-.39-.22-.64-.22-.74,0-.14,.01-.32,.04-.52-.2-.19-.3-.35-.3-.46,0-.04,0-.07,.01-.09,.18-.42,.27-.72,.27-.88,0-.15-.04-.25-.12-.29-.64-.35-.97-.52-.97-.53,0-.08,.12-.16,.36-.25,.24-.09,.48-.13,.71-.13,0-1.09-.12-1.79-.32-2.1-.34-.5-.63-.77-.88-.81l-.33-.06c-.06,0-.15-.1-.29-.26-.22-.02-.46-.06-.72-.12-.43-.11-.7-.16-.81-.16-.08,0-.3,.07-.68,.2l-.29-.09c-.08-.03-.17-.04-.27-.04-.52,0-1.04,.19-1.57,.58-.12-.21-.25-.32-.38-.32-.11,0-.35,.16-.74,.48l-.5,.32c-.07,0-.29,.23-.68,.72-.22-.38-.33-.64-.33-.78,0-.53-.02-.81-.04-.84-.06-.12-.2-.17-.42-.17s-.54,.18-.98,.53c-.41,.18-.66,.44-.74,.78,.22,.27,.34,.48,.35,.63,.02,.19,.04,.3,.06,.33,.02,.05,.12,.21,.3,.48l-.33,.19c.11,.6,.16,1,.16,1.23,0,.07,0,.12-.01,.17-.04,.2-.06,.35-.06,.43,0,.12,0,.26,.01,.45,.25,.02,.4,.04,.46,.07,.05,.05,.08,.12,.1,.2l-.4,.19c-.07,.19-.1,.35-.1,.48,0,.12,0,.23,.01,.35,0,.24,.01,.42,.01,.55,0,.07,0,.15-.01,.25-.02,.15-.03,.25-.03,.29,0,.07,.02,.2,.07,.39,.04,.13,.06,.25,.06,.35,0,.05-.04,.21-.13,.49v1.1s-.05,.22-.12,.5c-.02,.1-.03,.18-.03,.26,0,.09,.04,.17,.12,.25,.12,.13,.2,.2,.26,.2,.14,0,.25-.06,.33-.17,.08-.12,.15-.19,.22-.2,.04,0,.12-.04,.23-.09,.09-.05,.15-.07,.2-.07,.28-.04,.44-.07,.48-.09,.1-.04,.19-.16,.29-.36-.12-.31-.19-.75-.23-1.31,0-.08,0-.23-.03-.46l.04-.04c-.2-.19-.3-.38-.3-.55,0-.08,0-.13,.03-.16,.17-.23,.26-.38,.26-.43l-.03-1.07c.02-.16,.03-.26,.03-.29,0-.12-.02-.22-.07-.27-.06-.06-.28-.19-.66-.39-.17-.1-.26-.19-.26-.29,0-.05,.03-.1,.1-.14l.65-.48c.08-.05,.12-.16,.12-.33h0v-.06c-.02-.61-.03-.91-.03-.92,0-.22,.08-.45,.23-.68,.08-.13,.35-.33,.82-.59,.32-.2,.58-.33,.78-.39,.16-.04,.31-.09,.45-.16,.1-.04,.15-.06,.16-.06,.2,0,.4,.24,.61,.72v-.07l.27-.27c.35,.08,.54,.12,.59,.12,.28,0,.6-.15,.95-.46,.23-.19,.43-.29,.59-.29,.1,0,.18,.06,.26,.19l.4,.69s.16,.09,.39,.16l.07,.09c0,.16,.08,.33,.23,.49,.15,.16,.23,.29,.23,.39v.72c-.01,.06,.06,.17,.22,.35-.04,.18-.08,.32-.12,.42-.03,.07-.04,.11-.04,.12l.07,.76-.04,.52c.63,.24,.95,.38,.95,.42,0,.18-.12,.38-.35,.61l-.43,.4c-.09,.09-.16,.34-.22,.75,.49,.11,.85,.23,1.08,.38l.16,.1s-.25,.11-.74,.17l-.29,.1c0,.06,0,.13-.01,.22,0,.17-.02,.28-.03,.33-.17,.68-.26,1.06-.26,1.12,0,.19,.13,.43,.4,.71,.35-.23,.56-.37,.63-.4,.38-.15,.6-.25,.65-.27,.11-.06,.29-.18,.55-.38-.1-.26-.14-.44-.14-.53l.04-.61Z"/>
  <path class="cls-1" d="M279.58,65.39l-.2-.56c-.05-.19-.08-.3-.09-.33-.05-.12-.21-.25-.48-.39l-.48,.1c-.19-.24-.29-.4-.29-.48,0-.06,0-.12,.01-.2-.18-.1-.61-.25-1.27-.46l-.42-.2-.42-.03c-.35-.07-.56-.1-.63-.1-.12,0-.26,0-.42,.01l-.22,.36h-.2c-.12-.25-.23-.38-.33-.39l-.68,.04h-.01l-.5-.04c-.3,0-.63,.12-1,.38-.06,.05-.18,.27-.38,.68-.04,.07-.08,.1-.13,.1-.1,0-.19-.06-.27-.19-.33-.45-.53-.69-.62-.71,0,0-.07,0-.19,.03-.11,.03-.24,.04-.4,.04h-.01l-.84-.12c-.14,0-.34,.03-.59,.1-.09-.19-.23-.35-.42-.46-.65-.12-1.01-.24-1.07-.36,0,0,.02-.06,.07-.16,.12-.25,.36-.48,.74-.68,.12-.07,.52-.17,1.2-.32,.47-.18,.78-.29,.92-.32,.14-.03,.43-.04,.87-.04,.12-.13,.17-.27,.17-.4,0-.09,0-.19-.01-.3,.21-.07,.43-.12,.66-.14,.12,0,.45-.1,.97-.26,.38-.11,.75-.28,1.14-.53l.26-.17c.21-.13,.34-.23,.37-.27l.22-.36,.75-.59,.36-.42c.42-.44,.63-.79,.63-1.04,0-.11-.09-.22-.27-.35v-.19l.46-.23-.04-.06v-.45l-.25-.2c-.05-.18-.09-.3-.13-.36-.05-.06-.2-.2-.45-.42-.05-.04-.14-.13-.27-.27,.16-.46,.34-.69,.52-.69,.04,0,.07,.02,.1,.06l.46,.63s.05,.03,.12,.03c.12,0,.32-.02,.59-.07,.16-.03,.35-.12,.56-.29,.19-.13,.31-.24,.36-.31,.05-.07,.08-.19,.1-.37,.72-.3,1.08-.68,1.08-1.14,0-.06-.03-.13-.1-.22-.15,.05-.27,.08-.36,.09-.13,0-.22,.02-.25,.03-.32,.15-.63,.31-.94,.48,0,.08,.01,.14,.01,.2,0,.19-.09,.3-.27,.33-.25-.21-.42-.32-.5-.32h-.01c-.4,.05-.73,.07-.97,.07-.15,0-.32-.02-.49-.06-.24-.05-.42-.07-.53-.07-.05,0-.16,.03-.33,.1-.34,.12-.61,.29-.81,.49-.21-.02-.53-.03-.95-.03-.6-.09-.94-.13-1.04-.13-.12,0-.34,.03-.66,.1l-.49,.06c-.86,.24-1.4,.38-1.61,.4-.05,.1-.09,.15-.12,.17-.03,.02-.13,.05-.28,.09-.12,.02-.23,.07-.32,.14l-.72,.69c-.37,.22-.61,.4-.72,.53-.33,.41-.58,.7-.75,.85,.09,.21,.13,.37,.13,.46s-.03,.18-.09,.26c-.14,.21-.23,.34-.25,.38-.03,.07-.05,.33-.06,.78-.06,.41-.09,.63-.09,.65,0,.1,.09,.27,.27,.52l.2,.33s.12,.05,.38,.12c.16,.06,.26,.14,.29,.26,.07,.26,.11,.39,.12,.4,.02,.06,.08,.12,.17,.17,.4,.22,.7,.33,.89,.33,.07,0,.15,0,.25-.03,.16-.02,.31-.03,.45-.03,.09,0,.19,.03,.32,.09v.06c-.2,.15-.34,.25-.4,.27-.07,.03-.29,.07-.68,.12l-.37,.23c-.26,.13-.44,.24-.53,.32-.1,.08-.31,.28-.63,.61-.3,.3-.45,.55-.45,.76,0,.03,.04,.2,.12,.5,.04,.24,.07,.39,.09,.45,.05,.15,.29,.37,.74,.63,.29,.16,.59,.28,.91,.36,.38,.1,.61,.14,.71,.14,.19,0,.37-.11,.52-.33,.1,0,.18-.01,.26-.01,.09,0,.17,.02,.25,.06l.27,.12,.48-.74,.75,.76,.56-.1,.35-.06c.36-.17,.56-.26,.62-.26,.02,0,.04,0,.06,.01,.29,.17,.46,.26,.52,.26,.11,0,.23-.01,.38-.04,.18-.03,.34-.04,.48-.04,.08,0,.16,0,.26,.03,.31,.08,.49,.12,.53,.12h.07s.12-.01,.25-.01h.01c.84,.12,1.51,.36,2.03,.71-.02,.11-.03,.2-.03,.29s.07,.21,.2,.38c.15,.19,.29,.52,.4,1,.2,.07,.3,.15,.3,.25,0,.04-.04,.17-.13,.4-.02,.05-.03,.13-.04,.25,0,.21-.08,.47-.2,.78l.07,.53c0,.07-.07,.17-.23,.3-.11,.1-.18,.21-.22,.33-.13,.07-.3,.18-.5,.33-.53,.32-.81,.5-.84,.53-.1,.16-.18,.28-.26,.36-.29,0-.48,.02-.58,.04-.06,.02-.38,.14-.98,.38-.26,.1-.86,.23-1.82,.4-.21,.04-.37,.08-.46,.12-.1,.04-.16,.06-.19,.06l-2.03-.07s-.09,.1-.13,.3l-.13,.27c-.38-.45-.59-.68-.65-.68-.04,0-.08,0-.13,.01-.12,.03-.22,.04-.29,.04-.16,0-.51-.07-1.05-.2l-.23-.38c-.21-.07-.5-.24-.87-.5-.27-.19-.44-.4-.5-.62-.13-.05-.24-.08-.32-.09-.06,0-.1,0-.12-.01-.1-.04-.14-.12-.14-.25,0-.13,.12-.25,.36-.36-.02-.12-.03-.22-.03-.27,0-.24,.09-.49,.26-.75,.1-.15,.17-.25,.23-.29,.32-.23,.49-.36,.5-.39,.09-.09,.13-.18,.13-.29,0-.1-.05-.21-.16-.33-.2,.11-.6,.28-1.2,.52-.16,.08-.35,.24-.55,.49-.14,.17-.33,.28-.56,.32-.1,.1-.19,.25-.29,.46-.2,.43-.3,.74-.3,.92,0,.3,.08,.62,.25,.97,.17,.36,.3,.56,.39,.61,.04,.03,.23,.12,.56,.27l.32,.27,.42,.26,.33,.22s.16,.08,.33,.09c.41,.02,.65,.03,.71,.04,.05,.02,.2,.12,.45,.3l.23,.12,.04,.03,.56-.59,.61,.56,.32-.62c.17,.41,.26,.62,.27,.63,0,.02,.14,.03,.4,.03h.01l.81,.06c.13,0,.57-.12,1.31-.36l1.08-.09,.43-.09h.22s.48-.23,.48-.23l.55-.14,.4-.23,.85-.35c.4-.23,.71-.39,.91-.48,.12-.05,.29-.21,.52-.48,.3-.16,.46-.26,.49-.29,.08-.05,.17-.15,.27-.3,.13,0,.21-.04,.23-.1,.04-.05,.12-.17,.23-.36l.29-.52c.26-.28,.43-.5,.5-.66,.19-.42,.32-.79,.38-1.11,.09-.44,.13-.67,.13-.68l-.12-.52-.09-.61Zm-10.86-7.11c-.27-.05-.43-.09-.49-.13-.12-.09-.17-.22-.17-.4,0-.1,0-.21,.03-.35-.22-.15-.37-.28-.43-.39-.04-.07-.06-.18-.06-.33,0-.32,.03-.64,.09-.97,.04-.32,.08-.51,.13-.58s.19-.23,.42-.48c.16-.17,.33-.34,.49-.5,.07-.07,.16-.11,.29-.13,.15-.12,.26-.19,.33-.2l.42-.07c.4-.14,.67-.22,.79-.22,.05,0,.22,.02,.52,.07l.68-.2,.13,.04,.39,.13,.23,.13c.34,.08,.53,.12,.58,.14,.12,.05,.22,.12,.29,.23,.16,.26,.32,.45,.48,.56,.38,.28,.59,.59,.62,.94,.04,.37,.06,.7,.06,1,0,.08-.06,.26-.19,.56-.08,.27-.12,.41-.13,.42-.04,.06-.1,.12-.17,.17-.36,.24-.62,.47-.79,.68-.22,0-.36,0-.42,.03l-1.04,.43h-.35c-.33,.11-.56,.16-.71,.16-.66,0-1.13-.08-1.41-.23-.06-.03-.25-.2-.59-.52Z"/>
  <path class="cls-1" d="M313.19,60.85s.01-.02,.02-.03l-.42,.17s0,.05,.01,.08c.23-.1,.36-.17,.39-.22Z"/>
  <path class="cls-1" d="M313.39,60.5c-.08,.18-.13,.28-.18,.32l.41-.16c-.07-.1-.14-.15-.23-.16Z"/>
  <path class="cls-1" d="M313.76,64.25v-.1c.02-.38,.03-.58,.03-.59,0-.06-.06-.17-.16-.35-.1,0-.16,0-.19-.03-.07-.04-.17-.19-.3-.46l.3-.13c.03-.16,.06-.28,.1-.36l.06-.1-1.2-1,.38-.15c-.04-.21-.06-.37-.06-.44,0-.09,.07-.32,.22-.71h.33c.03-.2,.06-.38,.1-.55,.08-.37,.12-.64,.13-.82,.02-.64,.03-1.05,.03-1.23,0-.35-.03-.7-.09-1.07,0-.1-.01-.17-.01-.22,0-.02,.03-.29,.1-.81v-.03c0-.09-.1-.29-.29-.61-.31,.05-.62,.1-.95,.16h-.01l-.55-.07s-.17,.01-.4,.04c-.08,0-.15,.01-.22,.01-.17,0-.45-.04-.84-.12-.2,.18-.37,.27-.5,.27-.05,0-.08,0-.1-.01l-.75-.26c-.06-.02-.25-.03-.59-.03-.26,0-.4,0-.43,.01-.12,.04-.25,.12-.42,.26-.3,.23-.45,.42-.45,.56s.08,.22,.23,.22c.09,0,.18-.04,.29-.13,.22,.06,.36,.09,.4,.09,.91,0,1.41-.01,1.5-.04,.24-.07,.37-.1,.38-.1h.01l.22,.14c.12-.02,.24-.03,.33-.03,.09,0,.17,.03,.26,.09,.28,.21,.45,.56,.52,1.05h.25c.37,0,.7,.09,1.01,.26,.04,.02,.06,.03,.06,.04,0,.02-.01,.03-.04,.04l-.89,.36c-.17,.07-.26,.25-.26,.56v.14l.03,1.59c.11,.61,.16,.96,.16,1.05,0,.34-.04,.62-.13,.84l-.03,.09,1.24,1.47-1.2,.68,1.23,.75-1.21,.35c-.11,.03-.16,.12-.16,.29,0,.03,0,.08,.03,.16-.2,.04-.58,.14-1.12,.32l-.74,.09c-.59,.13-.94,.2-1.05,.2s-.28-.01-.49-.04c-.07,.33-.19,.49-.38,.49-.04,0-.07,0-.09-.01-.27-.12-.43-.19-.48-.19s-.36,.06-.94,.17c-.88,.1-1.32,.15-1.34,.16-.08,.05-.16,.13-.25,.26-.38,.05-.65,.07-.82,.07-.09,0-.16,0-.23-.01-.33-.02-.52-.03-.59-.03s-.25,0-.55,.03c-1.07,.04-1.63,.06-1.7,.06s-.12,0-.17-.01l-.25-.06s-.12,.04-.33,.13c-.1,.04-.22,.06-.36,.06-.46,0-.84-.12-1.14-.38-.37,.49-.66,.74-.89,.74-.03,0-.21-.08-.55-.23-.34-.15-.58-.27-.74-.35-.52-.28-.96-.62-1.33-1.02l-.1,.12-.13-.2c-.05-.06-.16-.11-.33-.16-.22-.08-.34-.12-.37-.14-.02-.01-.11-.09-.25-.24-.05-.05-.13-.12-.26-.23-.3-.26-.53-.49-.69-.69-.18-.23-.4-.42-.66-.58-.18-.12-.28-.22-.3-.3l-.12-.53c-.02-.12-.13-.33-.33-.63-.06-.07-.16-.22-.3-.46-.13,.12-.25,.17-.36,.17s-.16-.05-.16-.16c0,0,.06-.33,.17-.95v-.03c-.2-.37-.29-.83-.3-1.4l-.43-.1c-.8-.07-1.2-.12-1.2-.17h.09c.59-.16,1.06-.28,1.41-.38,0-.1-.03-.22-.07-.36-.09-.27-.14-.5-.17-.71l-.29,.04c-.13-.15-.2-.3-.2-.43,0-.21,.14-.4,.42-.56-.06-.37-.09-.59-.09-.68,0-.12,.03-.47,.1-1.07v-.03c0-.13-.16-.3-.48-.49,.05-.17,.22-.29,.5-.36,.04-.41,.11-.74,.22-.98,.18-.42,.27-.7,.27-.82,0-.23-.02-.5-.06-.79,.13-.15,.21-.24,.22-.27,.01-.02,.2-.5,.57-1.42,.14-.26,.22-.4,.23-.43,0-.02,.02-.11,.03-.27h-.17s.04-.17,.04-.17h.13s.03,.06,.03,.06c.11-.12,.19-.26,.26-.45l.35-.04c.2-.29,.4-.61,.61-.95,.2-.32,.4-.6,.61-.85,.24-.35,.38-.53,.4-.56,.09-.08,.23-.19,.43-.35l-.07-.39,.36,.12c.3-.24,.48-.42,.55-.55,.08-.12,.13-.19,.16-.19,.15-.04,.26-.08,.33-.13,.23-.17,.38-.28,.43-.33,.14-.12,.26-.34,.35-.66,.09,0,.15-.01,.19-.01,.12,0,.28,.03,.49,.09,.12-.19,.21-.3,.26-.33l.76-.46c.4-.28,.72-.47,.95-.56,.41-.17,.82-.33,1.23-.46,.07-.04,.11-.14,.13-.32,.45,0,.72-.03,.81-.07,.41-.23,.67-.35,.78-.35,.09,0,.28,.07,.59,.2l.97-.32c.31,.04,.47,.06,.48,.06,.12,0,.24-.04,.33-.13l.53-.56,.46,.45,.68,.13,.16,.07s.11-.05,.25-.17c.04-.04,.08-.06,.13-.06,.11,0,.34,.11,.71,.32l.92,.09,.63,.23c.45,.1,.74,.14,.87,.14,.11,0,.32-.12,.63-.38,.14-.12,.3-.22,.46-.3,.21-.11,.34-.17,.38-.2,.08-.05,.13-.13,.16-.26-.15-.16-.27-.25-.36-.25-.06,0-.15,.05-.29,.16h-.07l-.19-.2c-.32,0-.68-.05-1.1-.16-.82-.04-1.24-.06-1.27-.06-.53,0-.86-.03-1-.06h-.01c-.08,0-.26,.2-.56,.61-.8-.44-1.22-.66-1.25-.66-.03,0-.07,0-.12,.03-.35,.12-.52,.19-.53,.19h-.53s-.29,.03-.29,.03l-.42,.04-.36,.12c-.66,.13-1.28,.28-1.85,.45-.22,.08-.51,.13-.88,.14l-.42,.16-.87,.29-.53,.26c-.38,.15-.7,.3-.95,.45-.03,.21-.06,.32-.09,.33-.02,.06-.14,.14-.36,.25-.11-.04-.25-.15-.43-.33-.19,.12-.51,.38-.95,.75l-1.2,.76-.25,.27-.36,.25-.36,.35c-.39,.28-.75,.58-1.05,.89-.12,.12-.37,.36-.76,.74l.1,.65c-.13,.08-.24,.12-.3,.12-.09,0-.21-.05-.36-.16-.16,.14-.26,.24-.3,.29l-.38,.62-.58,.71-.25,.39c-.59,.94-.88,1.5-.88,1.69,0,.17,.16,.26,.48,.26l-.1,.5h-.63c-.13,.31-.23,.55-.29,.72,0,.03-.12,.48-.32,1.34l-.13,.4c-.06,.61-.11,1.01-.14,1.21h.38c.06,.2,.12,.49,.17,.86l-.45,.13c-.08,.14-.12,.25-.12,.32s0,.16,.03,.29c.04,.17,.06,.36,.07,.55,.04,.8,.06,1.21,.06,1.24,.08,.32,.12,.5,.12,.53,0,0-.01,.12-.04,.32v.06c0,.24,.07,.56,.2,.95l.63,1.77,.07,.25c.18,.29,.31,.52,.38,.69,.13-.03,.25-.04,.36-.04,.24,0,.36,.13,.36,.4,0,.14-.05,.38-.14,.71,.27,.27,.47,.48,.59,.62,.38,.5,.66,.81,.82,.94,.1,.07,.23,.1,.39,.1,.09,0,.2,0,.33-.01,.15,.15,.26,.36,.32,.62,.18,.13,.44,.38,.78,.72,.29,.32,.93,.62,1.93,.91l.09-.25c.22,.02,.39,.04,.5,.07,.11,.04,.25,.15,.43,.33,.47,0,.83,.03,1.07,.06,.29,.03,.44,.04,.45,.04,1.05,0,1.59,0,1.62-.01l.22-.16,.45-.04,.27-.03c.08,0,.19,.07,.35,.23,.73-.07,1.54-.17,2.44-.32l.53-.03,1.17-.27c.3,0,.54-.04,.74-.09l.78-.19c.63,0,1.01-.02,1.14-.06,.43-.19,.72-.29,.85-.29,.06,0,.13,0,.23,.03,.07,0,.12,.01,.17,.01h.03c.96-.16,1.57-.25,1.83-.27l.19-.17c.24,.06,.43,.09,.58,.09s.57-.1,1.27-.29c.78,0,1.18-.02,1.21-.03,.08-.04,.18-.16,.3-.38l.43-.1c0-.09-.01-.16-.01-.23s0-.13,.03-.19l.1-.32s-.04-.1-.13-.27c-.05-.1-.07-.26-.07-.5Z"/>
  <path class="cls-1" d="M330.89,57.33h.23c-.03-.25-.07-.6-.13-1.04-.06-.43-.12-.74-.18-.92s-.21-.47-.44-.85c-.46,0-.79-.16-.98-.46-.17-.31-.27-.48-.29-.5-.04-.05-.21-.16-.5-.35-.39-.27-.86-.46-1.38-.58-.09,.2-.2,.33-.35,.37-.1-.08-.21-.14-.35-.2l-.06-.3c-.36-.08-.64-.12-.87-.12-1.11,0-1.95,.11-2.52,.33-1.12,.41-1.69,.64-1.73,.68-.26,.27-.49,.45-.69,.55-.63,.31-1,.5-1.11,.59-.06,.03-.13,.12-.22,.27-.13,.28-.21,.42-.22,.43-.38,.25-.61,.42-.66,.5-.06,.1-.28,.51-.68,1.24-.19,.51-.33,.89-.4,1.14-.08,.29-.12,.75-.12,1.38v.06c.23,.1,.38,.22,.46,.38-.2,.14-.3,.3-.3,.46,0,.34,.11,.67,.32,1.01,.06,.09,.09,.13,.1,.13,.19,.13,.29,.2,.3,.2,.04,.04,.08,.11,.12,.22,.02,.07,.06,.19,.12,.36,.26,.14,.43,.24,.52,.29,.57,.38,.95,.58,1.14,.62,.36,.06,.54,.09,.56,.1,.07,.03,.17,.12,.3,.27,.21,0,.74,.09,1.59,.23l.46-.06h1.02l1.01-.22c.86-.05,1.33-.08,1.4-.09s.29-.13,.68-.34l.74-.35,.78-.39c.42-.13,.89-.51,1.4-1.12,.14-.23,.39-.76,.75-1.6,.12-.27,.2-.44,.22-.5,.03-.15,.06-.44,.09-.87-.23-.14-.37-.3-.4-.46l.29-.33v-.17Zm-1.59,2.19c0,.12-.02,.21-.06,.27-.04,.06-.18,.2-.42,.43l-.36,.72c-.3,.49-.48,.77-.55,.85-.05,.05-.26,.13-.63,.26-.56,.38-.88,.59-.98,.62-.35,.07-.61,.12-.79,.17-.28,.07-.53,.1-.75,.1-.13,0-.29-.02-.48-.07l-.43-.1h-.85c-.35,0-.69-.08-1.02-.25-.79-.4-1.21-.61-1.27-.61-.07,0-.15,.05-.25,.14-.22,0-.35-.08-.39-.22,.1-.19,.14-.33,.14-.42,0-.04,0-.07-.01-.09-.45-.73-.7-1.15-.75-1.25-.06-.17-.12-.42-.2-.75-.1,0-.19,.06-.29,.14l-.13-.13v-.14c.32-.17,.48-.31,.48-.42,0-.06-.13-.18-.39-.36-.08-.19-.12-.3-.12-.33,.34-.13,.5-.31,.5-.53,0-.06,0-.12-.01-.2,.14-.18,.26-.41,.36-.68l.29-.5c.04-.07,.07-.24,.09-.5l.13-.1,1.73-1.46,.1-.12,.62-.32c.08-.04,.19-.15,.33-.35l.3,.22c.34-.21,.59-.32,.75-.33,.15-.02,.48-.03,.98-.03,.04,0,.21,.04,.5,.12,.24-.1,.39-.14,.45-.14,.21,0,.37,.17,.46,.5,.35,.13,.59,.23,.72,.29,.16,.07,.26,.11,.28,.14,.02,.02,.13,.16,.33,.4,.33,.4,.54,.71,.65,.91h.35l.06,.06c0,.3,.02,.5,.04,.59l.23,.75c.11,.39,.2,.68,.27,.87-.1,.28-.15,.64-.17,1.08l-.06,.29h0c0,.09,.06,.25,.22,.48Z"/>
  <path class="cls-1" d="M347.62,57.33h.23c-.03-.25-.07-.6-.13-1.04-.06-.43-.12-.74-.18-.92s-.21-.47-.44-.85c-.46,0-.79-.16-.98-.46-.17-.31-.27-.48-.29-.5-.04-.05-.21-.16-.5-.35-.39-.27-.86-.46-1.38-.58-.09,.2-.2,.33-.35,.37-.1-.08-.21-.14-.35-.2l-.06-.3c-.36-.08-.64-.12-.87-.12-1.11,0-1.95,.11-2.52,.33-1.12,.41-1.69,.64-1.73,.68-.26,.27-.49,.45-.69,.55-.63,.31-1,.5-1.11,.59-.06,.03-.13,.12-.22,.27-.13,.28-.21,.42-.22,.43-.38,.25-.61,.42-.66,.5-.06,.1-.28,.51-.68,1.24-.19,.51-.33,.89-.4,1.14-.08,.29-.12,.75-.12,1.38v.06c.23,.1,.38,.22,.46,.38-.2,.14-.3,.3-.3,.46,0,.34,.11,.67,.32,1.01,.06,.09,.09,.13,.1,.13,.19,.13,.29,.2,.3,.2,.04,.04,.08,.11,.12,.22,.02,.07,.06,.19,.12,.36,.26,.14,.43,.24,.52,.29,.57,.38,.95,.58,1.14,.62,.36,.06,.54,.09,.56,.1,.07,.03,.17,.12,.3,.27,.21,0,.74,.09,1.59,.23l.46-.06h1.02l1.01-.22c.86-.05,1.33-.08,1.4-.09s.29-.13,.68-.34l.74-.35,.78-.39c.42-.13,.89-.51,1.4-1.12,.14-.23,.39-.76,.75-1.6,.12-.27,.2-.44,.22-.5,.03-.15,.06-.44,.09-.87-.23-.14-.37-.3-.4-.46l.29-.33v-.17Zm-1.59,2.19c0,.12-.02,.21-.06,.27-.04,.06-.18,.2-.42,.43l-.36,.72c-.3,.49-.48,.77-.55,.85-.05,.05-.26,.13-.63,.26-.56,.38-.88,.59-.98,.62-.35,.07-.61,.12-.79,.17-.28,.07-.53,.1-.75,.1-.13,0-.29-.02-.48-.07l-.43-.1h-.85c-.35,0-.69-.08-1.02-.25-.79-.4-1.21-.61-1.27-.61-.07,0-.15,.05-.25,.14-.22,0-.35-.08-.39-.22,.1-.19,.14-.33,.14-.42,0-.04,0-.07-.01-.09-.45-.73-.7-1.15-.75-1.25-.06-.17-.12-.42-.2-.75-.1,0-.19,.06-.29,.14l-.13-.13v-.14c.32-.17,.48-.31,.48-.42,0-.06-.13-.18-.39-.36-.08-.19-.12-.3-.12-.33,.34-.13,.5-.31,.5-.53,0-.06,0-.12-.01-.2,.14-.18,.26-.41,.36-.68l.29-.5c.04-.07,.07-.24,.09-.5l.13-.1,1.73-1.46,.1-.12,.62-.32c.08-.04,.19-.15,.33-.35l.3,.22c.34-.21,.59-.32,.75-.33,.15-.02,.48-.03,.98-.03,.04,0,.21,.04,.5,.12,.24-.1,.39-.14,.45-.14,.21,0,.37,.17,.46,.5,.35,.13,.59,.23,.72,.29,.16,.07,.26,.11,.28,.14,.02,.02,.13,.16,.33,.4,.33,.4,.54,.71,.65,.91h.35l.06,.06c0,.3,.02,.5,.04,.59l.23,.75c.11,.39,.2,.68,.27,.87-.1,.28-.15,.64-.17,1.08l-.06,.29h0c0,.09,.06,.25,.22,.48Z"/>
  <path class="cls-1" d="M360.88,58.11c-.02-.12-.11-.27-.26-.46-.2-.23-.58-.48-1.14-.73l-.52-.36-.52,.06c-.42-.13-.67-.2-.74-.2-.04,0-.27,.03-.69,.09l-.46-.04c-.49,.09-.76,.13-.82,.13-.15,0-.34-.01-.56-.04-.19,.25-.37,.38-.52,.38-.16,0-.25-.1-.25-.3,0-.05,0-.11,.01-.19-.19-.12-.38-.23-.56-.32-.31-.12-.48-.2-.5-.23-.18-.16-.27-.3-.27-.4,0-.22,.08-.46,.25-.71s.37-.44,.6-.56c.44-.24,.76-.43,.95-.58,.21,0,.36,.03,.43,.09,.23-.06,.36-.09,.38-.09,.05,0,.12,0,.23,.01,.08,0,.16,.01,.25,.01,.08,0,.2,0,.36-.01l.27-.29h.09c.11,.12,.21,.29,.3,.49,.29,.09,.75,.13,1.37,.13,.06,0,.32-.14,.78-.42,.44-.27,.68-.41,.71-.43,.1-.1,.14-.19,.14-.29s-.1-.19-.29-.29c-.08-.04-.35-.07-.82-.1l-.75,.13c-.79-.2-1.22-.3-1.3-.3-.45,0-1.05,.15-1.8,.46-.33,.13-.84,.41-1.53,.84l-.68,.4-.29,.27c-.43,.37-.7,.62-.81,.76-.39,.5-.59,1-.59,1.51,0,.59,.37,1.01,1.11,1.27,.12,.05,.21,.08,.26,.1,.2,.1,.32,.14,.36,.14,.11,0,.24-.03,.39-.1l.27,.29s.03-.04,.04-.04l.55,.12s.07,.01,.09,.01c.09,0,.19-.01,.3-.04,.28-.08,.52-.13,.72-.16l.27-.36c.18,.12,.33,.28,.43,.5,.37-.04,.68-.06,.94-.06,.22,0,.52,.05,.89,.16l.38-.27c.11,.21,.35,.6,.72,1.17,.09,.12,.13,.26,.13,.4,0,.65-.15,1.24-.46,1.74-.3,.49-.54,.81-.72,.95-.05,.04-.23,.11-.53,.22l-.56,.27c-.12,.07-.32,.11-.59,.12-.28,0-.6,.07-.95,.17l-.35-.07h-.55l-.49-.26-.53-.22s-.13-.11-.38-.32c-.11-.09-.19-.15-.26-.19-.31-.17-.48-.28-.52-.32-.06-.05-.08-.12-.07-.2h0s.06-.48,.06-.48c0-.25-.11-.48-.33-.69-.03-.03-.06-.04-.1-.04-.06,0-.27,.13-.63,.4l-.39,.36c-.21,.16-.32,.28-.32,.35,0,.32,.14,.64,.43,.98,.13,.15,.49,.4,1.05,.75l.46,.3c.03,.06,.29,.15,.79,.27,.23,.05,.58,.09,1.04,.12l.35,.04c.52-.15,.81-.23,.87-.23,.04,0,.25,.03,.63,.1l1.17-.32c.21-.02,.33-.03,.36-.04,.03,0,.12-.07,.26-.19,.32-.23,.72-.38,1.21-.45,.12-.17,.4-.51,.84-1.01,.08-.07,.17-.34,.29-.82,.12,.03,.24,.04,.33,.04,.31,0,.48-.31,.53-.92,.04-.28,.06-.45,.06-.5,0-.09-.07-.42-.2-1l-.1-.48Z"/>
  <path class="cls-1" d="M375.82,60.31c-.19,0-.33,.06-.4,.17-.15,.26-.32,.49-.49,.69-.07,.1-.31,.27-.74,.53-.43,.27-.73,.44-.89,.5-.12,.04-.34,.07-.68,.09l-.71,.2-.92,.1c-.37,.12-.61,.17-.74,.17-.13,0-.26-.03-.38-.09-.52-.24-.81-.36-.87-.36-.08,0-.17,0-.27,.03l-.25-.38c-.27-.02-.44-.06-.52-.12-.11-.06-.18-.24-.23-.53-.34-.05-.58-.13-.72-.26-.15-.13-.28-.4-.38-.79l-.45-.12,.07-.53-.26-.14c-.09-.21-.18-.62-.27-1.24-.02-.09-.18-.24-.49-.45,.17-.17,.29-.33,.35-.48,.05-.12,.1-.35,.14-.68,.2-.03,.58-.13,1.14-.3h.61s.68-.1,.68-.1l.66-.06,.53-.06c.68,0,1.1,0,1.25-.03l.07,.06c.21-.03,.39-.04,.55-.04,.04,0,.37,.06,.98,.17,.39-.39,.62-.59,.68-.59,.03,0,.34,.21,.94,.63l.43-.12,.49,.09,.55-.2c.18,.07,.33,.11,.43,.13l.1-.1c-.08-.21-.14-.38-.2-.52-.09-.26-.17-.48-.25-.66-.09-.21-.25-.44-.48-.68-.73-.76-1.14-1.16-1.24-1.21-.18-.08-.28-.12-.3-.14-.06-.05-.16-.16-.3-.33l-.46,.29c-.19-.51-.56-.76-1.1-.76-.06,0-.37,.11-.94,.32l-.71,.06-1.1,.35-.39,.07-1.07,.74-1.05,.65c-.42,.38-.8,.73-1.12,1.04l-.32,.68-.49,.58c-.05,.06-.13,.27-.25,.65-.13,.48-.2,.83-.2,1.04,0,.68,.03,1.09,.1,1.23,.25,.51,.38,.78,.38,.81,0,.08-.05,.19-.14,.35,.29,.29,.45,.47,.49,.55l.26,.46c.02,.09,.16,.21,.43,.38,.32,.19,.49,.3,.5,.32,.28,.26,.44,.4,.49,.43,.08,.04,.48,.17,1.2,.39l.3,.19,.27,.03c.58,.07,.93,.1,1.05,.1s.3-.01,.53-.04h.25s.5-.1,.5-.1l.85,.13s.16-.05,.46-.14c.11-.03,.36-.06,.75-.1,.23-.03,.64-.12,1.24-.29,.26-.02,.48-.09,.65-.2,.26-.19,.42-.29,.48-.29,.09,0,.19,.03,.32,.09,.11-.22,.36-.67,.76-1.35,.06-.11,.12-.33,.19-.68-.16-.12-.29-.19-.38-.19Zm-9.03-5.36c.16-.12,.27-.21,.33-.26,.31-.28,.5-.44,.56-.49,.31-.13,.66-.27,1.07-.42,.51-.12,.77-.18,.79-.2l.49-.29h.29c.67,.01,1.15,.03,1.43,.07,.12,.19,.22,.3,.27,.33l.48,.23c.06-.02,.2,.12,.43,.43,.08,.1,.12,.15,.14,.17,.12,.12,.17,.23,.17,.32,0,.04,0,.09-.01,.14-.04,.1-.06,.14-.07,.14l-.82-.07c-.26,.1-.52,.16-.78,.2-.07,0-.2,.03-.39,.07l-.25-.3c-.21,.02-.37,.04-.46,.07-.42,.1-.7,.14-.82,.14h-.03c-.44-.12-.68-.19-.71-.19-.06,0-.11,.02-.16,.06l-.56,.68-.32-.32-1.05-.42-.03-.03v-.09Z"/>
  <path class="cls-1" d="M147.83,20.64c-3.02-.41-5.22-2.38-7.27-4.48-2.23-2.28-4.34-4.71-7.14-6.32-4.25-2.44-10.92-3.68-14.71-.02-.12-.21-.24-.43-.36-.64-.4-.71-1.4-.81-1.96-.25-.27,.27-.51,.55-.76,.83-.11-.11-.21-.23-.33-.33-.7-.6-1.33-.58-2.14-.86-.5-.18-.22,.07-.4-.64-.1-.4-.23-.79-.45-1.14-.37-.6-.96-1.05-1.56-1.39-.65-.37-1.38-.61-2.02-.99-.75-.44-1.28-1.17-2.1-1.5-.09-.04-.18-.05-.27-.07-.2-.18-.41-.36-.64-.53-1.1-.78-2.4-1.09-3.68-.99-.54-.19-.92-.43-1.41-.82-.89-.7-1.99-.69-2.79,.18-.3,.33-.5,.76-.63,1.2-.54-.71-1.2-1.23-2.06-1.09-.66,.11-1.15,.57-1.43,1.16-.14,.29-.22,.6-.24,.92,0,.03,0,.07,0,.1-.49,.05-.98,.24-1.39,.56-.47,.36-.83,.84-1.17,1.34-1,0-1.99,.61-2.43,1.76-.67,1.73-1.84,3.34-3.35,4.43,.12-1.13-.98-2.16-2.19-1.79-.38,.12-.69,.35-.96,.63-.24-.29-.61-.47-.99-.48l-.58-.33c.28-.6,.57-1.2,.85-1.8,.5-1.07-.56-2.4-1.71-1.71-.57,.34-1.13,.68-1.7,1.02,.02-.89-.33-1.86-1.15-2.23-.46-.22-1.15-.26-1.51,.2-.42,.52-1.13,.6-1.5,.13-.78-.99-1.18-2.13-2.65-2.15-.1,0-.2,0-.29,.02-2.3-1.18-5.05-1.48-7.66-1.03-2.67,.46-5.04,1.77-7.22,3.37-.84,.26-1.67,.54-2.49,.86-.41-1.28-2.56-.6-2.35,.89,0,.05-.02,.09-.04,.14-.34,.16-.69,.32-1.03,.49-.58,.1-1.22,.13-1.43,.16-.69,.12-1.31,.35-1.78,.91-.14,.17-.29,.57-.44,.64-.21,.09-.67-.05-.88-.06-.69-.04-1.38,.02-1.97,.42-.26,.18-.41,.48-.65,.65-.06,.05-.11,.08-.13,.11-.04-.01-.13-.02-.32,0-.82,.09-1.34,.04-2.02,.58-.42,.33-.68,.92-1.11,1.2-.51,.34-1.32,.02-1.95,.33-1.2,.6-1.04,1.79-1.3,2.89,0,.01,0,.02,0,.02-.07,0-.13,.02-.2,.03-.35-.02-.79,.11-1.12,.22-.52,.17-1.01,.43-1.45,.75-1,.71-1.77,1.79-2.59,2.8-1.89,1.15-3.66,2.43-5.1,4.2-2.18,2.67-3.92,5.72-5.68,8.68-1.63,2.73-3.19,5.49-4.7,8.28-.01,0-.02,.02-.05,.03-.3,.21-.6,.41-.93,.58-.08,.04-.15,.08-.23,.12-.04,.02-.35,.13-.08,.04-.18,.06-.36,.13-.54,.19-.56,.19-1.04,.45-1.39,.94-.29,.42-.38,.97-.33,1.47,.09,.85,.28,1.7,.45,2.54-2.33,4.64-4.49,9.36-6.52,14.15-1.92,2.24-3.72,4.58-5.38,7.02-.46,.68,.02,1.63,.75,1.84,.45,.13,.89,.08,1.3-.07,.4,.33,.96,.43,1.44,.15,1.77-1.07,3.54-2.15,5.3-3.22,.45-.27,.7-.83,.59-1.34,2.62-2.38,5.23-4.76,7.86-7.14,1.97-1.78,4.86-4.69,7.82-4.19,.08,.01,.17,.05,.25,.07,0,.27,.1,.55,.33,.81,.07,.08,.11,.18,.15,.28l-1.67,2.69s-.04,.03-.06,.04c-1.72,1.06-3.5,2-5.18,3.12-.86,.57-1.7,1.16-2.53,1.77-.75,.55-2.11,1.23-2.11,2.31,0,.93,.86,1.84,1.52,2.42,.44,.38,.94,.67,1.48,.84,.2,.95,.67,1.84,1.51,2.6,1.32,1.17,3.76,.84,4.18-1.1,.43-2,1.78-3.14,3.47-3.74,.2,.17,.46,.28,.79,.28,2.67-.02,7.55,.26,6.79,4.16-.54,2.74-1.67,5.95,.01,8.58,.6,.94,1.67,1.49,2.75,1.01,.61-.27,.95-.87,1.62-1.01,.66-.13,1.37-.02,2.04-.03,3.03-.03,5.99-.98,8.51-2.65,.86-.57,.8-2.01-.3-2.28-1.93-.48-3.82-1.09-5.63-1.9-.58-.26-3.34-1.35-3.93-2.41,6.66,.14,13.58,.04,19.78-2.65,3.12-1.35,5.65-3.4,7.99-5.84,1.89-1.97,3.77-4.13,6.28-5.21,1.07-.21,2.16-.32,3.26-.33,.32,0,.64,.01,.97,.04,.35,.34,.88,.49,1.43,.17,0,0,0,0,.01,0,1.86,.26,3.77,.6,5.46-.06,2.16,.88,4.22,2.5,5.96,3.57,1.71,1.05,3.51,1.67,5.38,2.34,1.93,.69,3.05,1.66,3.34,3.76,.25,1.79,.18,3.69,1.26,5.24,1.04,1.49,3.12,2.01,4.2,.26,.52-.85,.87-1.29,1.92-1.48,1.13-.21,2.31,.02,3.45-.02,1.74-.06,3.24-.64,4.51-1.83,1.73-1.63,2.75-4.6,4.67-6.17,.52-.28,1.04-.56,1.55-.84,.02,0,.04-.02,.06-.02,0,0,0,0,0,0,.09-.05,.18-.1,.27-.15,1.24-.69,.4-2.66-.96-2.28-.94,.26-1.71,.73-2.38,1.31-2.09,1.09-4.25,2.08-6.55,2.6-3.33,.76-6.27,.09-9.15-1.66-2.88-1.75-5.66-3.66-8.48-5.5-2.06-1.35-4.81-3.09-5-5.81-.05-.54-.34-.9-.72-1.09,0-.85-.04-1.68-.04-2.41,0-3.04-.14-6.09-.39-9.12,3.12-.05,6.2-.62,8.65-2.76,3.31-2.88,4.14-8.08,4.66-12.19,.26-2.03,.34-4.08,.26-6.13,.04-.15,.09-.3,.14-.45,1.13-3.05,4.7,.45,6.05,1.45,2.2,1.62,4.89,2.11,7.45,2.92,2.75,.88,5.14,2.44,7.11,4.54,.69,.73,1.78,.29,2.09-.55,.94-2.58,.73-5.52-.65-7.92-.59-1.03-1.63-1.96-.83-3.18,.71-1.09,2.12-.99,3-.17,.87,.81,.83,2.15,1.61,3.05,.83,.94,2.04,1.16,3.04,1.83,2.07,1.38,2.44,4.39,2.78,6.64,.18,1.19,1.73,1.05,2.28,.3,1.17-1.6,3.7-1.31,5.38-.92,2.51,.58,4.93,1.38,7.5,.7,1.11-.29,1.27-2.24,0-2.41ZM77.78,7.38s.02,0,.02,0c.06-.04-.12,.41-.02,0Zm-.33,2.21s0-.03,0-.05c0,0,.02,0,.03,0,0,.02-.02,.03-.02,.05Z"/>
</svg>