<?xml version="1.0" encoding="UTF-8"?><svg id="a" xmlns="http://www.w3.org/2000/svg" viewBox="0 0 402.32 160.08"><defs><style>.b,.c,.d{fill:#fff;}.c{font-size:139.53px;}.c,.d{font-family:FranklinGothic-Heavy, 'Franklin Gothic Heavy';stroke:#fff;}.d{font-size:24px;}.e{letter-spacing:-.01em;}.f{letter-spacing:-.03em;}</style></defs><text class="c" transform="translate(120.29 116.8)"><tspan class="f" x="0" y="0">T</tspan><tspan x="61.32" y="0">ree</tspan></text><text class="d" transform="translate(137.94 144)"><tspan x="0" y="0">Photograp</tspan><tspan class="e" x="118.02" y="0">h</tspan><tspan x="131.91" y="0">y</tspan></text><g><path class="b" d="M58.13,52.12l-1.26,27.79c-.23,5.03-.49,10.19-2.42,14.82s-5.93,8.7-10.83,9.18c-2.57-7.24-8.56-13.11-15.74-15.42-2.8,6.79,3.7,13.58,9.49,17.97-8.7,2.21-18.18-2.55-23.25-10.12s-6.21-17.35-4.81-26.41c.33-2.14,.81-4.32,1.97-6.13,4.8-7.53,19.31-6.92,19.82-15.9,.16-2.76-1.33-5.31-1.92-8.01-1.84-8.38,5.04-16,11.85-21.01,10.1-7.43,23.02-13.24,34.76-9.03,9.67,3.47,16.12,12.98,19.79,22.78,3.05,8.12,4.5,17.77,.04,25.18,7.57,2.82,14.86,7.56,18.62,14.85,3.74,7.26,3.37,16.43-.45,23.65s-10.82,12.46-18.56,14.59c-7.35,2.02-16.86,.27-19.71-6.95,11.29-6,20.52-15.95,25.8-27.8-5.15-5.42-14.27-.57-18.62,5.54s-7.82,14.02-14.93,16.05c.76-10.87,1.52-21.75,2.27-32.62,.31-4.52,.56-9.35-1.65-13.27s-7.93-6.06-11.18-2.99"/><path class="b" d="M55.63,52.12c-.47,10.22-.8,20.46-1.41,30.68-.25,4.23-.72,8.72-2.82,12.49-1.6,2.88-4.34,5.72-7.78,6.11l2.41,1.84c-2.93-8.06-9.31-14.46-17.49-17.17-1.38-.46-2.61,.54-3.08,1.75-3.31,8.51,4.54,16.13,10.64,20.79l.6-4.57c-6.24,1.51-12.77-1.01-17.31-5.33-5.14-4.88-7.59-11.95-8.04-18.9-.24-3.69-.08-7.52,.72-11.14,.18-.84,.4-1.7,.75-2.48,.28-.63,.79-1.42,.99-1.66,.8-.96,1.48-1.52,2.34-2.09,4.06-2.71,9.06-3.74,12.98-6.68,2.03-1.52,3.71-3.53,4.23-6.07,.38-1.82,.25-3.64-.22-5.43-.51-1.94-1.43-3.78-1.7-5.78-.88-6.71,4.74-12.52,9.5-16.39,10.73-8.7,26.94-15.91,39.58-6.91,5.42,3.86,9.17,9.89,11.76,15.91,2.72,6.33,4.77,13.86,3.1,20.73-.41,1.69-1.04,3.24-1.92,4.74s.01,3.11,1.49,3.67c5.5,2.07,10.8,5.19,14.58,9.78s5.4,10.94,4.64,16.96-3.92,11.55-8.49,15.59c-3.95,3.48-9.34,6.17-14.59,6.57-4.88,.38-11.13-.91-13.16-5.83l-1.15,2.82c11.73-6.29,21.24-16.56,26.69-28.69,.46-1.03,.45-2.18-.39-3.03-4.77-4.82-11.94-3.22-16.91,.4-2.7,1.96-4.79,4.34-6.63,7.11-1.74,2.61-3.32,5.35-5.23,7.84s-4.18,4.69-7.2,5.61l3.16,2.41c.67-9.56,1.33-19.11,2-28.67,.53-7.65,1.95-17.9-5.78-22.58-3.5-2.12-7.91-2.19-11.05,.6-2.41,2.14,1.14,5.67,3.54,3.54,.75-.67,1.62-.84,2.69-.7,.84,.11,2.03,.62,2.85,1.24,2.42,1.81,3.07,5.09,3.2,7.94,.18,3.89-.3,7.82-.57,11.69-.29,4.2-.59,8.4-.88,12.6-.33,4.78-.67,9.56-1,14.33-.11,1.61,1.69,2.86,3.16,2.41,7.71-2.33,11.43-9.83,15.62-16.04,1.95-2.89,4.47-5.34,7.66-6.83,2.75-1.28,5.67-1.56,7.83,.63l-.39-3.03c-5.14,11.43-13.84,20.97-24.9,26.9-.87,.47-1.55,1.84-1.15,2.82,2.51,6.1,8.35,9.05,14.7,9.51s13.12-1.95,18.37-5.66c5.95-4.22,10.49-10.28,12.27-17.41s.88-15.29-3.2-21.64c-4.4-6.83-11.5-11.2-18.96-14.01l1.49,3.67c4.29-7.29,3.66-16.18,1.28-23.99-2.22-7.27-5.83-14.39-11.07-19.95s-12.64-9.2-20.55-9.19c-8.32,0-16.37,3.43-23.3,7.81-6.66,4.2-13.42,9.58-16.48,17.08-1.53,3.76-1.61,7.78-.35,11.63,.61,1.85,1.46,3.72,1.28,5.7,.04-.4-.09,.44-.12,.55-.06,.23-.13,.45-.21,.67,.16-.43-.17,.33-.23,.43-.07,.12-.53,.78-.25,.42-1.37,1.77-3.35,2.69-5.61,3.72-2.47,1.13-5.03,2.09-7.38,3.46-2.58,1.49-4.97,3.52-6.27,6.26-1.79,3.77-2.15,8.31-2.23,12.43-.17,8.2,1.85,16.68,6.96,23.23,4.58,5.88,11.73,9.97,19.27,10.17,1.86,.05,3.73-.19,5.54-.63,2.31-.56,2.18-3.36,.6-4.57-4.37-3.34-10.73-9-8.34-15.15l-3.08,1.75c6.42,2.12,11.69,7.33,13.99,13.68,.34,.94,1.28,1.97,2.41,1.84,7.51-.87,12.46-7.2,14.29-14.15,1.02-3.87,1.25-7.92,1.44-11.91,.2-4.37,.4-8.73,.6-13.1l.69-15.13c.15-3.22-4.85-3.21-5,0h0Z"/></g><g><path class="b" d="M52.96,96.69c5.73,1.16,11.66,1.3,17.43,.43"/><path class="b" d="M52.3,99.1c6.22,1.23,12.49,1.36,18.76,.43,1.34-.2,2.07-1.89,1.75-3.08-.39-1.43-1.73-1.94-3.08-1.75-5.32,.78-10.83,.61-16.1-.43-1.32-.26-2.7,.38-3.08,1.75-.34,1.23,.42,2.81,1.75,3.08h0Z"/></g><g><path class="b" d="M72.69,104.09c-3.26-.51-6.75,1.29-8.23,4.23"/><path class="b" d="M73.35,101.68c-1.27-.19-2.39-.19-3.67,.01-1.04,.17-2.05,.56-2.99,1.03-1.84,.93-3.46,2.5-4.4,4.33-.6,1.16-.34,2.77,.9,3.42,1.15,.6,2.78,.34,3.42-.9,.2-.39,.45-.73,.68-1.1-.42,.64-.23,.29-.1,.14,.08-.09,.15-.18,.23-.26,.15-.16,.3-.31,.46-.45,.18-.16,.79-.56,.08-.1,.18-.12,.35-.25,.53-.37,.38-.24,.78-.45,1.2-.63l-.6,.25c.69-.29,1.4-.49,2.14-.59l-.66,.09c.66-.08,1.33-.08,1.99,0l-.66-.09,.12,.02c.69,.1,1.3,.12,1.93-.25,.52-.3,1.01-.9,1.15-1.49,.15-.64,.11-1.36-.25-1.93-.33-.51-.87-1.06-1.49-1.15h0Z"/></g><g><path class="b" d="M42.17,108.35c4.72,6.17,10.77,11.31,17.62,14.96"/><path class="b" d="M40.02,109.61c5.01,6.52,11.26,11.96,18.52,15.86,1.19,.64,2.72,.3,3.42-.9s.3-2.78-.9-3.42c-6.49-3.48-12.3-8.31-16.72-14.06-.82-1.07-2.15-1.64-3.42-.9-1.05,.62-1.73,2.34-.9,3.42h0Z"/></g><g><path class="b" d="M61.86,85.52c.29,11.31,.58,22.63-.04,33.92-.53,9.81-1.75,19.66-.76,29.43,.17,1.64,1.09,3.79,2.69,3.4,1.67-18.51,.79-37.25-2.6-55.52"/><path class="b" d="M59.36,85.52c.25,9.75,.5,19.51,.17,29.26s-1.63,19.45-1.29,29.2c.14,4.03,.18,11.63,6.18,10.71,1.14-.18,1.75-1.4,1.84-2.41,1.67-18.76,.73-37.67-2.69-56.19-.25-1.33-1.85-2.08-3.08-1.75-1.4,.38-1.99,1.74-1.75,3.08,3.33,18.07,4.14,36.56,2.51,54.86l1.84-2.41c.32-.05,.5,.09,.77,.11,.43,.04,.13,.23,.07-.05,0-.03-.12-.27-.16-.37-.28-.8-.28-1.45-.35-2.4-.17-2.2-.23-4.41-.23-6.61,.01-4.42,.31-8.84,.62-13.25,.62-8.84,.95-17.67,.86-26.53-.05-5.08-.18-10.16-.31-15.25-.08-3.21-5.08-3.22-5,0h0Z"/></g></svg>